<svg xmlns="http://www.w3.org/2000/svg" id="Layer_1" width="1445" height="467" data-name="Layer 1" viewBox="0 0 1445 467"><defs><style>.cls-2{fill:#0056d2}</style></defs><path d="M144.9 233.88c0-44.81 36.63-80.8 82.43-80.8a83 83 0 0 1 69.67 37L262.66 210a42.94 42.94 0 0 0-35.33-18.32c-23.55 0-42.85 19.63-42.85 42.2s19.3 42.2 42.85 42.2a42.46 42.46 0 0 0 36.31-20l34 20.28a82.94 82.94 0 0 1-70.33 38.28c-45.78.04-82.41-36.64-82.41-80.76" style="fill:#2668b8"/><path d="M304.65 233.88c0-44.49 36.63-80.47 82.43-80.47 46.12 0 82.76 36 82.76 80.47 0 44.16-36.64 80.8-82.76 80.8-45.8 0-82.43-36.68-82.43-80.8m125.61 0c0-22.24-19.3-41.87-43.18-41.87-23.55 0-42.85 19.63-42.85 41.87 0 22.57 19.3 42.2 42.85 42.2 23.92 0 43.18-19.63 43.18-42.2M1135.89 235.19c0-48.74 39.58-81.78 75.57-81.78 24.53 0 38.6 7.52 48.08 21.92l3.77-19h36.79v155.4h-36.79l-4.75-16c-10.79 11.78-24.21 19-47.1 19-35.33-.05-75.57-31.13-75.57-79.54m125.61-.33a43 43 0 0 0-86 .33c0 21.59 19.3 40.89 42.86 40.89 23.85 0 43.14-19.3 43.14-41.22M1090.68 174.34v-18h-40.23v155.39h40.23V228c0-25.19 12.44-38.27 34-38.27 1.43 0 2.79.1 4.12.23l7.46-37.51c-20.97.11-36.17 7.3-45.58 21.89M686.41 174.35v-18l-40.23.09.34 155.37 40.23-.09-.22-83.72c-.06-25.18 12.35-38.29 33.93-38.34a39 39 0 0 1 4.12.23l7.42-37.55c-21 .17-36.22 7.39-45.59 22.01M483.78 251.54v-95.19H524v90.29c0 19.95 11.12 31.73 30.42 31.73 21.59 0 34-13.09 34-38.28v-83.74h40.24v155.38h-40.21v-18c-9.48 14.72-24.86 21.92-46.12 21.92-35.98.01-58.55-26.16-58.55-64.11M875.52 234.06c.09-43.51 31.23-80.74 80.62-80.65 45.8.09 78.11 36.78 78 80a80 80 0 0 1-1 12.76l-118.41-.22c4.54 18.65 19.89 32.09 43.12 32.14 14.06 0 29.12-5.18 38.3-16.94l27.44 22c-14.11 19.93-39 31.66-65.48 31.61-46.75-.16-82.67-35.23-82.59-80.7m118.12-16.14c-2.26-15.7-18.59-27.84-37.89-27.87-18.65 0-33.71 11.06-39.63 27.73ZM732.24 277.86 768 259.14c5.91 12.81 17.73 20.36 34.48 20.36 15.43 0 21.34-4.92 21.34-11.82 0-25-84.71-9.85-84.71-67 0-31.52 27.58-48.26 61.72-48.26 25.94 0 48.92 11.49 61.4 32.83L826.79 204c-5.25-10.51-15.1-16.42-27.58-16.42-12.14 0-18.06 4.27-18.06 11.49 0 24.3 84.71 8.87 84.71 67 0 30.21-24.62 48.59-64.35 48.59-33.82-.03-57.46-11.19-69.27-36.8M144.9 233.88c0-44.81 36.63-80.8 82.43-80.8a83 83 0 0 1 69.67 37L262.66 210a42.94 42.94 0 0 0-35.33-18.32c-23.55 0-42.85 19.63-42.85 42.2s19.3 42.2 42.85 42.2a42.46 42.46 0 0 0 36.31-20l34 20.28a82.94 82.94 0 0 1-70.33 38.28c-45.78.04-82.41-36.64-82.41-80.76" class="cls-2"/></svg>