<svg xmlns="http://www.w3.org/2000/svg" xml:space="preserve" id="Layer_1" x="0" y="0" viewBox="0 0 200 108.9"><style>.st0{fill:#01aedb}</style><g id="KIej5O.tif"><path d="M6.2 49.1c.6-.8 1.2-1.5 1.8-2.3.4-.5.9-.8 1.4-.8h41.8c.3 0 .5.3.4.5-.3.8-.5 1.5-.8 2.3-.2.4-.5.5-.9.5H7c-.2 0-.4 0-.6-.1-.2.1-.2 0-.2-.1" class="st0"/><path d="M105.8 62.8H88.5c-.5 0-.9 0-1.3-.2-.7-.3-1-.9-1-1.5 0-.4.1-.7.3-1 1.4-3.4 2.9-6.8 4.8-10.1.4-.7.9-1.1 1.6-1.3.3-.1.7-.1 1-.1h28.8c.2 0 .4 0 .5-.3 1.4-4.4 3.6-8.3 6.4-11.9 2.7-3.4 5.7-6.5 9.3-8.8 3.3-2.2 6.8-3.8 10.6-4.9 4.7-1.3 9.5-2.1 14.5-2 7.7.2 14.5 2.8 20.3 7.7 4.3 3.6 7.2 8.1 8.8 13.4.8 2.5 1.1 5 1.2 7.6.2 3 .1 6.2-.5 9.2-1 5.1-3 9.8-6.1 14-4.8 6.4-10.7 11.2-18.2 14.3-3.3 1.3-6.8 2.4-10.4 2.8-1.8.2-3.6.5-5.5.5-6.8-.2-13-1.8-18.6-5.6-6-4-10.2-9.3-12.3-16.4 0-.1 0-.2-.1-.3-.1.1-.2.3-.3.5-4.3 7.9-10.3 14-18.4 17.9-3.5 1.7-7.1 2.7-11 3.2-2.5.4-5 .5-7.5.4-5.6-.3-10.7-2-15.5-5-4.2-2.8-7.7-6.3-10.1-10.6-1.7-3.1-2.8-6.5-3.2-10-.4-2.5-.5-4.9-.4-7.4.3-4.8 1.5-9.3 3.7-13.6 3.6-7.1 8.7-12.9 15.5-17.2 4-2.5 8.3-4.2 12.7-5.1 3-.7 6.2-1 9.3-1 7.6.1 14.3 2.8 20 7.8 3.1 2.8 5.4 6.2 7.1 10 .1.2.2.4.3.7.2.4.1.7-.3 1-.3.2-.7.3-1 .4-5.1 1.3-10.3 2.7-15.4 4-.1 0-.3.1-.4.1-.5.1-1 0-1.2-.4s-.7-.7-1-1c-2-2.4-4.7-3.7-7.6-4.5-3.6-.9-7-.4-10.4 1.1-3.9 1.8-7.1 4.5-9.3 8.3-1.4 2.3-2.2 4.8-2.5 7.5-.3 2.2-.3 4.4.2 6.5 1.3 5.6 5.7 10 11.3 10.9 5.3 1 10.2-.4 14.3-4 1.9-2 3.2-3.8 4.3-5.6q0 .15 0 0m54.8-25.4c-1 0-2.1.1-3.1.3-2.9.6-5.8 1.7-8.3 3.4-3.5 2.4-5.9 5.6-7.3 9.6-1 2.9-1.6 5.7-1.1 8.7.5 2.9 1.5 5.7 3.6 7.9 4.3 4.6 9.6 6 15.7 4.8 2.9-.6 5.5-2 7.9-3.8 4.9-3.6 7.6-8.6 8.1-14.6.2-1.9-.2-3.9-.8-5.7-2.2-6.4-8-10.7-14.7-10.6" style="fill:#00addb"/><path d="M36.9 41H20.5c-.2 0-.5.1-.6-.2-.1-.2.1-.4.3-.6.6-.8 1.1-1.4 1.7-2.2.3-.4.7-.5 1-.6h32.3c.2 0 .6-.1.7.2s-.1.5-.2.7c-.4.7-.9 1.3-1.2 1.9-.3.5-.8.8-1.3.8-5.4.1-10.9.1-16.3 0q0 .15 0 0M38.7 58h-9.8c-.6 0-.7-.2-.4-.7.4-.7.8-1.3 1-2 .3-.5.7-.8 1.2-.8h17.9c.7 0 .9.2.8.9s-.1 1.2-.2 1.9c-.1.6-.3.8-.9.8-3.1 0-6.3 0-9.6-.1" class="st0"/></g></svg>