<svg xmlns="http://www.w3.org/2000/svg" xml:space="preserve" id="Layer_1" x="0" y="0" viewBox="0 0 200 200"><style>.st0{fill:#0e6cdc}.st1{fill:#c86a45}.st4{fill:#d57b4b}.st6{fill:#fdfdfc}.st7{fill:#e5e6e9}.st8{fill:#267de7}.st10{fill:#fcfdfd}</style><path d="M149.2 182.9h-25.3c-15.6 0-28.3-12.8-28.3-28.3v-57c0-15.6 12.8-28.3 28.3-28.3h25.3c15.6 0 28.3 12.8 28.3 28.3v56.9c0 15.6-12.8 28.4-28.3 28.4" class="st0"/><path d="m86.5 71.2 10.3 100.6 41.5 13.2 41.7-16.3 5.5-96.9z" class="st0"/><path d="M50.5 14.5v112.9l15.3.5 37.3-11.4 6.7-100.7z" class="st1"/><ellipse cx="77.3" cy="30.7" rx="14.7" ry="11.7" style="fill:#fff"/><g id="hMGc68.tif_2_"><path d="M63.1 74.4c-5.4 0-10.8-.1-16.2-.1H34.2c-1.2 0-1.5-.4-1.6-1.5-.8-9.5-1.7-19-2.6-28.4l-.9-9.9c-.1-1 .3-1.1 1.2-1.1h11.9c6.9 0 13.9 0 20.8-.1v13.8c-6 0-12.1 0-18.1-.1-.7 0-1 .2-.9.9.4 4 .7 8 1.1 12 .1.7.4.9 1 .9 5.7 0 11.3-.1 17-.1v13.7" style="fill:#e9e7e6"/><path d="M63.1 95.8V74.2c.5 0 1.1.1 1.6.1h13.7c1 0 1.3.2 1.2 1.3-.5 5-.9 10-1.3 14.9-.1 1.1-.5 1.4-1.5 1.7-4.6 1.2-9.2 2.5-13.8 3.7z" class="st4"/><path d="M62.5 133.4c-3.6-1.3-7.4-2.2-11.1-3.2-10.4-2.9-20.9-5.8-31.3-8.7-.9-.3-1.3-.7-1.3-1.6-1.4-15.5-2.8-31-4.1-46.5-1.1-12.8-2.2-25.7-3.4-38.5-.7-7.4-1.3-14.8-2-22.2-.1-1.3.1-1.8 1.6-1.8h104.9c.4 0 .9.1 1.3.1v3.9c-.4.2-.3.6-.3.9-.2 2.5-.4 4.9-.7 7.4-.8 8.5-1.5 17.1-2.3 25.6-.7 8.1-1.4 16.3-2.2 24.5-.8 8.5-1.5 17-2.3 25.5-.6 7.1-1.3 14.1-1.9 21.2-.1.9-.5 1.3-1.4 1.6-9 2.4-18 4.9-26.9 7.4-5.2 1.5-10.5 3-15.7 4.5-.3-.1-.6-.1-.9-.1m.6-37.6h-.6c-4.5-1.2-9.1-2.5-13.6-3.7-.8-.2-1-.6-1-1.3-.2-2.9-.6-5.8-.8-8.7-.1-.7-.2-1.1-1-1H34.6c-.9 0-1.1.3-1 1.2.2 1.5.2 3 .4 4.4.4 4.8.9 9.7 1.3 14.5.1.9.4 1.3 1.3 1.5 8.9 2.4 17.8 4.9 26.6 7.3v12.2c0 1.7 0 1.8 1.7 1.3 5.9-1.6 11.7-3.2 17.6-4.8 5-1.4 10.1-2.8 15.1-4.2.6-.2 1.3-.2 1.3-1.1.3-3.1.6-6.3.9-9.4.2-2.7.4-5.3.6-8 .4-4.2.8-8.4 1.2-12.7.2-2.5.4-4.9.6-7.4.4-3.9.8-7.8 1.1-11.8l.6-8.1c.4-4.2.8-8.4 1.2-12.7.2-2.6.5-5.1.7-7.7.4-4.8.9-9.6 1.4-14.4.1-1-.2-1.5-1.4-1.5H64.4c-1 0-1.4.3-1.4 1.4.1 4 0 8 0 12.1-6.9 0-13.9.1-20.8.1H30.3c-.9 0-1.3.1-1.2 1.1.4 3.3.6 6.6.9 9.9.9 9.5 1.7 18.9 2.6 28.4.1 1.1.4 1.5 1.6 1.5 4.2-.1 8.4 0 12.7 0 5.4 0 10.8 0 16.2.1z" class="st1"/><path d="M63.1 33.3V21.2c0-1 .3-1.4 1.4-1.4h41.4c1.2 0 1.5.4 1.4 1.5-.5 4.8-1 9.6-1.4 14.4-.2 2.6-.4 5.1-.7 7.7-.4 4.2-.8 8.4-1.2 12.7l-.6 8.1c-.4 3.9-.8 7.8-1.1 11.8-.2 2.5-.4 4.9-.6 7.4-.4 4.2-.8 8.4-1.2 12.7-.2 2.7-.4 5.3-.6 8-.3 3.1-.6 6.3-.9 9.4-.1.9-.7 1-1.3 1.1-5 1.4-10.1 2.8-15.1 4.2-5.9 1.6-11.7 3.2-17.6 4.8-1.7.5-1.7.4-1.7-1.3v-12.4h.4c8.8-2.4 17.6-4.9 26.3-7.3.8-.2.9-.7 1-1.4.5-6 1.1-12 1.6-18.1.6-7 1.2-13.9 1.9-20.9.1-1.1-.1-1.6-1.4-1.5-3.6.1-7.2 0-10.9 0-6.3 0-12.7 0-19 .1V46.9c10.6 0 21.1 0 31.7.1.8 0 1-.4 1-1.1l.9-10.5c.2-2 .1-2-1.8-2H64.6c-.5 0-1 .1-1.5.1z" class="st4"/><path d="M63.1 110c-8.9-2.5-17.8-4.9-26.6-7.3-.9-.2-1.2-.7-1.3-1.5-.4-4.8-.8-9.7-1.3-14.5-.1-1.5-.2-3-.4-4.4-.1-.8.1-1.2 1-1.2H46c.8 0 1 .3 1 1 .2 2.9.6 5.8.8 8.7.1.7.2 1.1 1 1.3 4.6 1.2 9.1 2.5 13.6 3.7h.6v14c.1.1.1.1.1.2" style="fill:#e9e8e8"/><path d="M63.1 95.9c4.6-1.2 9.2-2.5 13.8-3.7.9-.2 1.4-.6 1.5-1.7.4-5 .8-10 1.3-14.9.1-1.1-.2-1.3-1.2-1.3H64.8c-.5 0-1.1-.1-1.6-.1V60.8c6.3 0 12.7-.1 19-.1 3.6 0 7.2.1 10.9 0 1.3 0 1.5.4 1.4 1.5-.7 7-1.2 13.9-1.9 20.9-.5 6-1.1 12-1.6 18.1-.1.7-.2 1.2-1 1.4-8.8 2.4-17.6 4.8-26.3 7.3h-.4c-.2-4.7-.2-9.3-.2-14M63.1 46.9V33.5c.5 0 1-.1 1.5-.1H95c1.9 0 2 0 1.8 2l-.9 10.5c-.1.7-.2 1.1-1 1.1-10.7-.1-21.3-.1-31.8-.1" class="st6"/><path d="M63.1 60.7c-5.7 0-11.3 0-17 .1-.7 0-1-.2-1-.9-.3-4-.7-8-1.1-12-.1-.7.2-.9.9-.9h18.2z" class="st1"/><path d="M136.8 89.1c.1 0 .2.1.3.1v13.5c-.1 0-.2.1-.3.1-8.2 0-16.4 0-24.5-.1h-7c-.8 0-1.1-.3-1.2-1.1-.3-3.7-.6-7.4-1-11.1-.1-1.3.3-1.5 1.4-1.5H135c.7.1 1.2.1 1.8.1M136.8 130.2c-4.5 0-9-.1-13.5-.1H108c-.9 0-1.4-.1-1.5-1.2-.3-3.7-.6-7.4-1-11.1-.1-1.2.3-1.4 1.4-1.4H135c.6 0 1.2 0 1.8-.1.1 0 .2.1.3.1v13.4c-.1.3-.2.3-.3.4" class="st7"/><path d="M136.8 130.2c.1-.1.2-.1.3-.2 5 0 10 .1 15 .1 1.1 0 1.4.3 1.3 1.4-.5 4.9-1 9.8-1.3 14.6-.1 1.3-.6 1.6-1.7 1.9-4.5 1.2-8.9 2.4-13.3 3.6-.1 0-.2-.1-.3-.1zM135.7 116.6c-.1 0-.2-.1-.3-.1v-13.7c.1 0 .2-.1.3-.1 6.3 0 12.6.1 18.8 0 1 0 1.4.2 1.3 1.2-.4 3.7-.8 7.5-1.1 11.2-.1 1.1-.5 1.4-1.6 1.4-5.7 0-11.5.1-17.4.1" class="st8"/><path d="M136.8 89.1V77c0-1 .3-1.4 1.3-1.4h41.4c1.2 0 1.5.4 1.4 1.5-.3 3-.5 6-.8 9-.3 2.7-.4 5.4-.7 8.1-.4 4.1-.8 8.1-1.1 12.2l-.6 7.5c-.4 4.2-.8 8.3-1.1 12.5l-.6 8.1c-.4 3.9-.8 7.8-1.1 11.8-.2 2.7-.4 5.3-.7 8-.4 4.1-.8 8.2-1.1 12.4v.1c.6 2.8-1.1 3.4-3.3 4-8.5 2.3-17 4.7-25.6 7-1.9.5-3.9 1-5.9 1.6-1.1.3-1.3 0-1.3-1v-11c0-.6.1-1.2-.3-1.7.2 0 .4-.1.6-.1h.3c8.7-2.4 17.5-4.8 26.2-7.2.9-.3 1.1-.8 1.1-1.6.2-3 .5-5.9.7-8.9 1-10.6 1.9-21.1 2.9-31.7.8-8.5 1.5-17.1 2.3-25.6.1-1.1-.1-1.5-1.3-1.4-5.1.1-10.1 0-15.2 0-5.7 0-11.4 0-17.1.1-.2-.1-.3-.2-.4-.2" class="st8"/><path d="M137.1 165.6c-.2 0-.4.1-.6.1-8.6-2.4-17.3-4.8-25.9-7.2-1-.3-1.5-.6-1.6-1.8-.5-6.1-1.1-12.1-1.7-18.2-.1-1.2 0-1.8 1.5-1.7 3.5.1 7 .1 10.6 0 1.1 0 1.6.3 1.6 1.5.1 2.7.4 5.4.7 8.2.1.6 0 1.2.9 1.4 4.7 1.2 9.5 2.5 14.2 3.8.1 0 .2.1.3.1z" style="fill:#e7e8e9"/><path d="M137.1 116.6c5.4 0 10.8-.1 16.2 0 1.1 0 1.4-.3 1.5-1.4.3-3.8.6-7.5 1-11.2.1-1-.2-1.2-1.2-1.2h-17.5V89.3c5.7 0 11.4-.1 17.1-.1h15.2c1.2 0 1.4.3 1.3 1.4-.8 8.5-1.5 17.1-2.3 25.6-1 10.6-1.9 21.1-2.9 31.7-.3 3-.5 5.9-.7 8.9-.1.8-.2 1.4-1.1 1.6-8.7 2.4-17.5 4.8-26.2 7.2h-.3v-13.9c4.4-1.2 8.9-2.5 13.3-3.6 1.1-.3 1.6-.7 1.7-1.9.3-4.9.8-9.8 1.3-14.6.1-1.1-.2-1.4-1.3-1.4-5 0-10 0-15-.1 0-4.6-.1-9-.1-13.5" class="st10"/></g><path d="M137.2 89.2v13.5h19.6l1.9 17.6h-21.9v9.9h18.4l-1.3 23.1-17.1-1.7v14.1l16.2-9 4.9-3.8 2.9-13.1 1.8-30.7-2.3-12.2z" class="st10"/><path d="M136.2 189.2c-2.5-1.1-5.3-1.6-7.9-2.4-11.4-3.2-22.8-6.4-34.2-9.5-1-.3-1.4-.7-1.5-1.7-.7-8.5-1.5-17-2.3-25.5-.9-9.5-1.7-19.1-2.6-28.6-.7-8.2-1.5-16.4-2.2-24.6-.9-9.6-1.7-19.2-2.6-28.8-.1-1 0-1.5 1.2-1.5h105.4c1.1 0 1.3.3 1.2 1.3-1.4 15.1-2.7 30.2-4 45.4-1.4 15.6-2.8 31.1-4.2 46.7-.5 5.3-1 10.6-1.4 15.9-.1.9-.5 1.1-1.2 1.3l-41.1 11.4c-.5.1-1.1.1-1.5.6zm.6-72.7c-.6 0-1.2.1-1.8.1h-28.1c-1.1 0-1.5.2-1.4 1.4.4 3.7.7 7.4 1 11.1.1 1 .6 1.2 1.5 1.2h15.3c4.5 0 9 0 13.5.1v21.4c-4.7-1.3-9.5-2.5-14.2-3.8-.9-.2-.9-.8-.9-1.4-.2-2.7-.5-5.4-.7-8.2-.1-1.2-.5-1.5-1.6-1.5-3.5.1-7 .1-10.6 0-1.5-.1-1.6.5-1.5 1.7.6 6.1 1.2 12.1 1.7 18.2.1 1.2.6 1.5 1.6 1.8 8.6 2.4 17.3 4.8 25.9 7.2.4.5.3 1.1.3 1.7v11c0 1 .3 1.3 1.3 1 1.9-.6 3.9-1.1 5.9-1.6 8.5-2.4 17-4.8 25.6-7 2.3-.6 4-1.3 3.3-4v-.1c.4-4.1.8-8.2 1.1-12.4.2-2.7.4-5.3.7-8 .4-3.9.8-7.8 1.1-11.8l.6-8.1c.4-4.2.8-8.3 1.1-12.5l.6-7.5c.4-4.1.8-8.1 1.1-12.2.2-2.7.4-5.4.7-8.1.4-3 .6-6 .8-9 .1-1.1-.2-1.5-1.4-1.5h-41.4c-1 0-1.4.3-1.3 1.4v12.1c-.6 0-1.2.1-1.8.1h-30.5c-1.1 0-1.6.2-1.4 1.5.4 3.7.7 7.4 1 11.1.1.8.4 1.1 1.2 1.1h7c8.2 0 16.4 0 24.5.1.2 4.3.2 8.8.2 13.4" class="st0"/></svg>