<svg xmlns="http://www.w3.org/2000/svg" width="512pt" height="512pt" viewBox="-9 0 512 512.111"><path fill="#f0c419" d="M60.695 102.762c-67.218 77.32-79.77 188.09-31.554 278.488S176.34 522.934 277.996 510.18c101.656-12.75 184.906-86.895 209.3-186.399 24.392-99.508-15.128-203.746-99.362-262.066h-.09L269.996 18.813a244 244 0 0 0-22.773-1.06 242.7 242.7 0 0 0-67.887 9.532zm0 0"/><path fill="#fff" d="M194.258 70.719c0 2.949-.176 5.898-.531 8.828H53.543a73 73 0 0 1-.527-8.828c0-39.004 31.617-70.621 70.62-70.621 39 0 70.622 31.617 70.622 70.62m0 0"/><path fill="#2c2f38" d="M143.32 79.547a26.16 26.16 0 0 0 6.797-17.656c0-14.625-11.855-26.485-26.48-26.485s-26.485 11.86-26.485 26.485a26.18 26.18 0 0 0 6.797 17.656"/><path fill="#e57e25" d="M128.387 185.477c-45.086 0-55.828-20.446-56.903-22.786a8.827 8.827 0 0 1 15.887-7.668c.426.696 8.406 12.797 41.004 12.797 35.762 0 50.043-14.28 50.629-14.89 3.324-3.563 8.914-3.754 12.476-.43 3.563 3.328 3.754 8.914.43 12.48-.77.836-19.414 20.497-63.523 20.497m0 0"/><path fill="#f0c419" d="M193.727 79.547c-4.36 35.394-34.426 61.988-70.09 61.988s-65.73-26.594-70.094-61.988zm0 0"/><path fill="#e6e7e8" d="M188.96 43.793c-16.132-27.488-48.675-40.77-79.433-32.41C78.77 19.746 57.422 47.672 57.43 79.547h-3.887a73 73 0 0 1-.527-8.828C52.973 36.973 76.813 7.91 109.914 1.352c33.106-6.555 66.223 11.226 79.047 42.441m0 0"/><path fill="#e57e25" d="M123.637 150.168c-40.047-.016-73.832-29.809-78.86-69.535a8.84 8.84 0 0 1 2.149-6.934 8.82 8.82 0 0 1 6.617-2.98h140.184a8.82 8.82 0 0 1 6.617 2.98 8.81 8.81 0 0 1 2.148 6.934c-5.023 39.726-38.812 69.52-78.855 69.535m-59.27-61.793c7.836 26.188 31.93 44.133 59.27 44.133 27.336 0 51.433-17.946 59.265-44.133zm0 0"/><path fill="#fff" d="M123.637 48.648c0 7.313-5.93 13.243-13.242 13.243s-13.243-5.93-13.243-13.243 5.93-13.242 13.243-13.242 13.242 5.93 13.242 13.242M387.934 70.719a73 73 0 0 1-.532 8.828h-140.18a73 73 0 0 1-.53-8.828c0-39.004 31.617-70.621 70.62-70.621s70.622 31.617 70.622 70.62m0 0"/><path fill="#2c2f38" d="M337 79.547a26.18 26.18 0 0 0 6.797-17.656c0-14.625-11.86-26.485-26.485-26.485s-26.48 11.86-26.48 26.485a26.16 26.16 0 0 0 6.797 17.656"/><path fill="#e57e25" d="M313.781 185.477c-45.082 0-55.824-20.446-56.902-22.786a8.826 8.826 0 0 1 4.242-11.507 8.827 8.827 0 0 1 11.649 3.84c.421.695 8.402 12.796 41.003 12.796 35.762 0 50.043-14.28 50.625-14.89 3.329-3.563 8.915-3.754 12.48-.43a8.83 8.83 0 0 1 .427 12.48c-.758.836-19.41 20.497-63.524 20.497m0 0"/><path fill="#f0c419" d="M387.402 79.547c-4.359 35.394-34.425 61.988-70.09 61.988s-65.73-26.594-70.09-61.988zm0 0"/><path fill="#e6e7e8" d="M382.637 43.793c-16.13-27.488-48.676-40.77-79.434-32.41-30.758 8.363-52.101 36.289-52.098 68.164h-3.882a73 73 0 0 1-.532-8.828c-.043-33.746 23.797-62.809 56.903-69.367 33.105-6.555 66.219 11.226 79.043 42.441m0 0"/><path fill="#e57e25" d="M317.313 150.168c-40.043-.012-73.833-29.805-78.848-69.535a8.82 8.82 0 0 1 2.144-6.93 8.82 8.82 0 0 1 6.614-2.984h140.191a8.8 8.8 0 0 1 6.61 2.984 8.82 8.82 0 0 1 2.144 6.93c-5.023 39.726-38.809 69.52-78.856 69.535m-59.27-61.793c7.836 26.188 31.934 44.133 59.27 44.133s51.433-17.946 59.269-44.133zm0 0"/><path fill="#fff" d="M317.313 48.648c0 7.313-5.93 13.243-13.243 13.243s-13.238-5.93-13.238-13.243 5.926-13.242 13.238-13.242 13.243 5.93 13.243 13.242m0 0"/><path fill="#802d40" d="M414.945 362.027a174 174 0 0 1-14.3 20.305c-21.008 39.281-200.387 60.488-198.09 72.941l-1.235-35.777a218.73 218.73 0 0 0-7.945-115.816c.883.261 159.777-74.614 202.238-96.93 9.18-6.441 18.54-13.504 28.16-21.273 0 0 44.137 88.277-8.828 176.55m0 0"/><path fill="#fff" d="M349.535 418.613v12.27a190.37 190.37 0 0 1-173.375 25.426v-26.66a8.925 8.925 0 0 1 8.211-8.829l16.95-1.324 84.476-6.445 54.379-3.176a8.828 8.828 0 0 1 9.36 8.738m0 0"/><path fill="#ff5364" d="M400.645 382.332a244.6 244.6 0 0 1-51.11 48.55v-12.269c-.02-2.422-1.035-4.726-2.805-6.379s-4.136-2.504-6.554-2.359l-54.38 3.176a54.6 54.6 0 0 0-11.562-24.98 56.7 56.7 0 0 1-10.238.175 31 31 0 0 1-15.098-6.004 26.73 26.73 0 0 1-9.53-12.094 16.75 16.75 0 0 1 1.323-14.21 32.15 32.15 0 0 1 16.243-12.625 109.5 109.5 0 0 1 33.277-7.149c55.351-4.766 90.574 25.16 110.434 46.168m0 0"/><path fill="#fff" d="M370.809 264.926c-16.067 12.004-51.465 37.164-120.145 43.254a147.2 147.2 0 0 1-54.555-3.618c-.968-.265-1.851-.62-2.734-.882a39.94 39.94 0 0 1-24.102-16.864l-9.355-42.02c43.96 21.188 125.969 38.138 235.695-38.046 6.004 30.633-3.531 42.375-24.804 58.176m0 0"/><path fill="#e57e25" d="M239.426 475.277a229.1 229.1 0 0 1-83.684-16.773 8.82 8.82 0 0 1-5.523-6.887 8.832 8.832 0 0 1 11.933-9.566c158.496 61.855 241.68-78.45 245.141-84.453 39.637-66.059 21.89-132.961 12.773-157.97-94.101 72.669-169.921 77.54-217.539 68.423a172.7 172.7 0 0 1-85.132-41.047c-3.348-3.465-3.305-8.969.097-12.375a8.825 8.825 0 0 1 12.375-.117c4.574 4.5 111.848 106.937 288.356-35.922a8.83 8.83 0 0 1 13.453 2.914c1.879 3.777 45.664 93.66-9.164 185.043-.688 1.219-64.063 108.723-183.086 108.73m0 0"/></svg>