<svg xmlns="http://www.w3.org/2000/svg" width="512pt" height="512pt" viewBox="0 0 512 512.069"><path fill="#f0c419" d="M369.383 66.719c-69.82-41.785-156.961-41.785-226.781 0l-14.563 9.531a222.7 222.7 0 0 0-56.676 59.059l-7.062 11.652h-.086a216.7 216.7 0 0 0-24.102 63.559v.085a191 191 0 0 0-22.422 89.602c0 116.965 106.727 211.863 238.348 211.863 131.617 0 238.344-94.898 238.344-211.863a190.7 190.7 0 0 0-22.422-89.602v-.085a216.7 216.7 0 0 0-24.102-63.56h-.086l-7.062-11.741a222.4 222.4 0 0 0-56.672-58.969zm0 0"/><path fill="#fff" d="M229.555 198.691c.011 26.493-18.121 49.551-43.875 55.79h-.086c-12.184-15.891-36.281-27.985-65.68-32.043v-.09c-12.137-26.762-2.07-58.368 23.309-73.18l6.617-3.356.355-.09a56.9 56.9 0 0 1 21.98-4.413c31.688 0 57.38 25.691 57.38 57.382m0 0"/><path fill="#e57e25" d="M194.246 286.965a8.826 8.826 0 0 1-8.828-8.828c0-26.313-40.422-48.551-88.277-48.551a8.829 8.829 0 0 1 0-17.656c59.402 0 105.93 29.078 105.93 66.207 0 4.875-3.95 8.828-8.825 8.828m0 0"/><path fill="#2c2f38" d="M194.246 194.277c0 9.75-7.906 17.653-17.656 17.653s-17.656-7.903-17.656-17.653c0-9.754 7.906-17.656 17.656-17.656s17.656 7.902 17.656 17.656m0 0"/><path fill="#fff" d="M194.246 185.45a8.829 8.829 0 1 1-17.658-.002 8.829 8.829 0 0 1 17.658.001m0 0"/><path fill="#802d40" d="M256.04 344.344c-4.118 0-101.177-.211-141.95-18.422a39.58 39.58 0 0 1-24.895-26.676c-4.625-20.074 11.203-39.223 11.883-40.027 3.133-3.735 8.703-4.219 12.438-1.086 3.734 3.137 4.222 8.707 1.086 12.441a34.13 34.13 0 0 0-8.192 24.758 23.23 23.23 0 0 0 14.91 14.469c37.32 16.687 133.754 16.89 134.72 16.89.96 0 97.394-.203 134.741-16.89a23.23 23.23 0 0 0 14.91-14.469c.653-9.02-2.3-17.93-8.21-24.777a8.82 8.82 0 0 1-1.52-8.696 8.82 8.82 0 0 1 6.77-5.668 8.82 8.82 0 0 1 8.292 3.028c.68.804 16.508 19.953 11.883 40.027a39.58 39.58 0 0 1-24.922 26.676c-40.773 18.21-137.832 18.422-141.945 18.422m0 0"/><path fill="#e57e25" d="M105.969 176.621a8.83 8.83 0 0 1-8.61-6.797 8.836 8.836 0 0 1 4.653-9.933l88.277-44.137a8.83 8.83 0 0 1 8.816.535 8.82 8.82 0 0 1 3.946 7.898 8.83 8.83 0 0 1-4.871 7.368l-88.274 44.14a8.8 8.8 0 0 1-3.937.926M300.176 423.793a8.83 8.83 0 0 1-8.828-8.828c0-8.332-15.106-17.656-35.309-17.656-20.207 0-35.312 9.324-35.312 17.656a8.829 8.829 0 0 1-17.657 0c0-19.8 23.27-35.309 52.97-35.309 29.694 0 52.964 15.508 52.964 35.309a8.83 8.83 0 0 1-8.828 8.828m0 0"/><g fill="#2fa8cc"><path d="M37.715 6.531a160.9 160.9 0 0 1 18.414 38.25 8.83 8.83 0 0 1-11.379 11.38A160.9 160.9 0 0 1 6.5 37.745c-8.621-8.621-8.621-22.598 0-31.215 8.617-8.62 22.594-8.62 31.215 0M34.094 106.945a160.4 160.4 0 0 1 34.62 24.559 8.825 8.825 0 0 1-4.414 15.465 160.5 160.5 0 0 1-42.37 2.39c-11.215-3.75-17.477-15.675-14.203-27.039 3.277-11.363 14.93-18.125 26.421-15.332zM149.922 29.906a160.5 160.5 0 0 1-8.73 41.543 8.83 8.83 0 0 1-15.953 2.082 161 161 0 0 1-19.087-37.957c-1.492-12.043 7.016-23.035 19.051-24.601 12.035-1.57 23.078 6.875 24.719 18.898zM474.29 6.531a160.7 160.7 0 0 0-18.423 38.25 8.827 8.827 0 0 0 11.387 11.379 160.8 160.8 0 0 0 38.242-18.414 22.08 22.08 0 0 0 5.793-21.355A22.07 22.07 0 0 0 495.645.746a22.06 22.06 0 0 0-21.356 5.785M477.91 106.945a160.4 160.4 0 0 0-34.62 24.559 8.825 8.825 0 0 0 4.414 15.465 160.5 160.5 0 0 0 42.37 2.39 22.066 22.066 0 0 0 9.895-37.566 22.07 22.07 0 0 0-22.102-4.805zM362.074 29.906a160.6 160.6 0 0 0 8.723 41.543 8.82 8.82 0 0 0 7.305 6.2 8.83 8.83 0 0 0 8.656-4.118 160.5 160.5 0 0 0 19.074-37.957c1.496-12.043-7.016-23.035-19.05-24.601-12.032-1.57-23.075 6.875-24.716 18.898zm0 0"/></g><path fill="#e57e25" d="M256.04 441.45a8.826 8.826 0 0 1-8.83-8.829v-8.828a8.826 8.826 0 0 1 8.83-8.828c4.874 0 8.823 3.953 8.823 8.828v8.828c0 4.875-3.949 8.828-8.824 8.828m0 0"/><path fill="#fff" d="M282.52 198.691c-.012 26.493 18.12 49.551 43.875 55.79h.085c12.184-15.891 36.282-27.985 65.68-32.043v-.09c12.137-26.762 2.074-58.368-23.305-73.18l-6.62-3.356-.356-.09a56.9 56.9 0 0 0-21.98-4.413c-31.688 0-57.38 25.691-57.38 57.382m0 0"/><path fill="#e57e25" d="M317.832 286.965c4.875 0 8.824-3.953 8.824-8.828 0-26.313 40.422-48.551 88.278-48.551a8.829 8.829 0 0 0 0-17.656c-59.403 0-105.93 29.078-105.93 66.207a8.826 8.826 0 0 0 8.828 8.828m0 0"/><path fill="#2c2f38" d="M353.14 194.277c0 9.75-7.906 17.653-17.656 17.653s-17.652-7.903-17.652-17.653c0-9.754 7.902-17.656 17.652-17.656s17.657 7.902 17.657 17.656m0 0"/><path fill="#fff" d="M353.14 185.45a8.829 8.829 0 1 1-17.657-.002 8.829 8.829 0 0 1 17.658.001m0 0"/><path fill="#e57e25" d="M406.105 176.621a8.83 8.83 0 0 0 8.61-6.797 8.836 8.836 0 0 0-4.652-9.933l-88.278-44.137a8.83 8.83 0 0 0-11.847 3.957c-2.18 4.363-.407 9.664 3.957 11.844l88.273 44.14c1.223.61 2.57.926 3.937.926m0 0"/></svg>