<svg xmlns="http://www.w3.org/2000/svg" xml:space="preserve" viewBox="0 0 107.6 114"><path d="M16.8 12.5c1.6.5 3.3.9 4.8 1.7 1.9 1 3.8 2 5.4 3.6.6.6 1.3.9 2.2.9q3.15 0 6.3.9c2.3.6 4.4 1.6 6.5 2.9 8.9 5.6 16.1 12.9 21.4 22.3 1.4 2.4 2.2 5.1 3.3 7.7 1.9 4.6 4.1 9 6.1 13.5.7 1.6 1.8 2.4 3.3 3 5.5 2.1 10.2 5.6 14.7 9.5 1.7 1.4 3 3.1 4.3 4.9.4.5.2.7-.3.9-2.1.8-4.3 1.1-6.4 1.3-1.9.2-3.7 1.1-5.6 1.3-.4 0-.3.3-.2.5.3.6.7 1 1.1 1.4 1 1 2.2 1.7 3.3 2.4 3.3 1.9 6 4.4 8.3 7.5.3.3.5.7.9 1 1 .8 1.6 1.8 2 3.1-.4.2-.6-.2-.8-.4-2.6-2.5-5.4-4.5-8.6-5.9-2.8-1.2-5.3-3-7.6-5-1.7-1.5-2.9-3.4-3.7-5.5-.2-.6.3-1 .7-1.1 2.4-.8 4.7-1.8 7.2-2.1 1.8-.2 3.5-.3 5.3-.3.2 0 .4.1.5-.1.1-.3-.1-.4-.2-.6-.5-.6-1-1-1.6-1.4-1.7-1.1-3.3-2.2-4.8-3.5-2.9-2.3-6.2-3.8-9.7-4.7-2.6-.7-4.3-2.2-5.5-4.7-2.5-5.7-5.2-11.3-7.4-17.1-1.8-4.6-4.5-8.7-7.5-12.5-5.2-6.4-11.3-11.5-18.8-14.7-1.4-.6-2.9-1-4.4-1.1-1.4 0-2.9-.2-4.3-.3-.6 0-1.1-.4-1.5-.8-2.4-2.4-5.3-3.6-8.3-4.8-.6-.3-1.2-.4-1.9-.4-1.5 0-2.3 1.1-1.9 2.5.4 1.5 1.1 2.7 2.1 3.8 3.2 3.9 5.5 8.2 6.7 13.2.3 1.1.7 2.2 1 3.3.9 2.6 2.1 5.1 4.1 7 1 1 1.1 2.2.8 3.5-.5 2-1.5 3.9-1.9 6-1.1 5.7-.9 11.2 1.4 16.6.5 1.1 1 2.1 2 2.7.7.4.9.3 1-.5.3-2.2.5-4.4.9-6.6.5-2.4 1.9-4.3 3.4-6.2.3-.4.5-.1.6.1.2.5.3 1.1.5 1.7 2.5 6.5 5.7 12.5 9.7 18.1 1 1.4 2.1 2.8 3.6 3.9.1.1.3.2.2.5-.3 0-.6-.2-.8-.4-2.9-3.1-6.4-5.5-9.1-8.8-1.6-1.9-2.5-4.2-3.6-6.4-.2-.4-.4-.9-.8-1.3l-.6 3c-.2 1.2-.3 2.4-.5 3.5-.7 3-3.4 4-5.7 2.2-1.8-1.4-2.9-3.3-3.7-5.5-2.2-6-2.4-12-.7-18.2.5-1.7.6-3.5 1.4-5.1.2-.4 0-.8-.3-1.1-2.7-2.9-4-6.6-5.3-10.3-.6-1.9-1.3-3.7-1.8-5.6-.3-1.1-.9-2.1-1.5-3-1.2-1.6-2.3-3.3-3.5-4.9-1.1-1.4-1.8-3-2.4-4.7v-2.3c.3-.1.2-.4.3-.7.5-1.2 1.2-2.3 2.4-2.9.4-.2.9-.2 1.2-.5.6.1 1.5.1 2.3.1" style="fill:#045770"/><path d="M27.9 28.4c2.6-1 3.8.2 4.7 2.3.3.7-.3 2.6-1 3.1-.2.1-.3.2-.4-.1-.7-2-1.9-3.7-3.3-5.3" style="fill:#065971"/></svg>