<svg xmlns="http://www.w3.org/2000/svg" width="480" height="480" viewBox="0 0 48 48"><path fill="#607d8b" d="M9 28h3v14H9z"/><path fill="#607d8b" d="M9 39h26v3H9z"/><path fill="#607d8b" d="M32 28h3v14h-3zm-17 6h14v3H15z"/><path fill="#a68a6e" d="M15.08 28.26 29 29.758l-.32 2.982-13.92-1.498z"/><path fill="#ef6c00" d="m36.87 6 2.134 13.835-2.966.458-2.133-13.836z"/><path fill="#ff9800" d="m28.47 8.237 6.831 12.218-2.62 1.464-6.83-12.218z"/><path fill="#d38b28" d="m20.501 14.551 11.5 7.982-1.712 2.465-11.5-7.982z"/><path fill="#c09553" d="m16.9 21.218 13.172 4.739-1.016 2.823-13.172-4.738z"/></svg>