<svg xmlns="http://www.w3.org/2000/svg" xml:space="preserve" baseProfile="tiny" viewBox="0 0 651.5 235"><path fill="none" d="m25.7 15.3 7 5.1s-1.9-6.4-3.8-11-2.7-6.4-8.1-7.5C15.3.8 0 0 0 0l5.9 5.1c1.3 12.2 13.3 15.2 19.8 10.2M25.7 229.6l7 5.1s-1.9-6.4-3.8-11-2.7-6.4-8.2-7.5c-5.4-1.2-20.7-2-20.7-2l5.9 5.1c1.3 12.2 13.3 15.2 19.8 10.3M644.7 15.3l7 5.1s-1.9-6.4-3.8-11-2.7-6.4-8.2-7.5C634.3.8 619 0 619 0l5.9 5.1c1.3 12.2 13.3 15.2 19.8 10.2M644.7 229.6l7 5.1s-1.9-6.4-3.8-11-2.7-6.4-8.2-7.5c-5.4-1.1-20.8-1.9-20.8-1.9l5.9 5.1c1.4 12.1 13.4 15.1 19.9 10.2"/><g fill="#203232"><path d="M307 166.5h-56.3l-11.5 31.1h-27.8l52.9-131.9c1.2-3 4.1-4.9 7.3-4.9h19.7l54.9 136.8h-27.8zm-8.2-22.7-19.9-53.6-19.9 53.6zM485.1 128c0 38.9-21.9 72.5-68 72.5-41.8 0-72.3-27.6-72.3-71.3 0-42.2 28.7-71.3 73.5-71.3 22.7 0 40.1 7.6 53.2 18.2l-16.6 21.3c-9.6-8-22.1-13.9-37.5-13.9-27.9 0-45.1 19.7-45.1 45.7 0 26.6 17.8 45.7 46.1 45.7 26.4 0 38.5-16.8 40.1-31.7h-36.2l18.3-23.1h44.5zM528 84.2v35.9h50l-18.1 23.1H528v54.4h-25v-129c0-4.3 3.5-7.8 7.8-7.8h75v23.5H528z"/></g><path fill="#ed5a36" d="m166.9 102.5-6.1-7.2c-5.2-8.1-19.7-18.5-.1-33.8l-10.6-11.4 11.3-13.5-24.1 1.1-51.1-6.3-9.6 10 5 13.4S28.4 104 59.7 171c20.5 29.3 40.8 30.5 40.8 30.5S26.9 136.4 83 77.2c0 0-8.4 32.2 2.6 58.7 0 0 26.3-.2 28.1-11.3l-1.6-4.1s22.2 4.1 28.9-5.9l7.9 6.5 24.8-6.8zM94.6 75.1s41-16.2 40.6 27.9c0 0-37.8 3-40.6-27.9"/><g fill="#203232"><path d="M81.6 54.8c.8-14.2 10-20.2 10-20.2 8 4.3 12.8 16.8 12.8 16.8.3-2.9.3-5.5.2-7.9 4.1-1.8 21.8-8.2 38.4 4.4 0 0 5.3-9.1 18.4-11.2 0 0 .6 6.6 0 12.8 0 0 6.4-11.2 4.5-23 0 0-12-2.4-30.2 9.3 0 0-17.9-9-33.8-3.9-3.7-8.3-9.6-11.5-9.6-11.5-8.6 3.5-14.9 9.3-21.1 26.7-25.1 20-40.7 39.8-38.4 84.4 8-55.7 48.8-76.7 48.8-76.7"/><path d="M147.9 59.2c-10.2-10.5-21.5-13.6-21.5-13.6-11 5.9-18.9 15.8-18.9 15.8l22.1-7.9z"/><path d="M132.1 59.2c-6.1 4.8-11.9 13.6-11.9 13.6l15.9-5.4 14.1 3.3c-9.4-7.8-18.1-11.5-18.1-11.5M123.6 92.6l7 5.1s-1.9-6.4-3.8-11-2.7-6.4-8.2-7.5c-5.4-1.1-20.8-1.9-20.8-1.9l5.9 5.1c1.3 12.1 13.3 15.1 19.9 10.2M137.1 118c-12.7.9-20.8-3.8-20.8-3.8 6 13.2 20.8 3.8 20.8 3.8M140 123.6c-8.2 3.7-14.2 1.9-14.2 1.9 7.8 7 14.2-1.9 14.2-1.9M85.5 135.9c7.5.5 16.1-2.2 16.1-2.2C87.8 115 90.3 88.3 90.3 88.3c-12.1 30.3-4.8 47.6-4.8 47.6"/><path d="M165.5 66s13.4 17.5 1.4 36.5c2.4 4.6 2.2 11.7-3.7 13.6-6.2 2-16.1 1.6-22.2-1.9l8.8 12.1s-4.4 7.7-17.6 7.7-20.1-13.9-20.1-13.9-.1 10.7 6.9 17.7c-6.1 8.2-31.9 10.5-46.1 5.8 0 0-12.6-31.5 10.1-66.3-18.1 13.5-29.3 44-18.5 77l53 .1-1.9 7.7h52.3s2.1-9.7-1.7-18.1c18.8-12.5 8.5-40.7 8.5-40.7s7.3-24.1-9.2-37.3m-38.7 88.9s3.9-16 22-16c8.6 0 9.4 16 9.4 16zm29.5-26.7 12.5-7c4.3 12.4-7.4 15.9-7.4 15.9z"/><path d="m162.4 77.2 1.3-4.2s-5.8 2.4-9.4 4.4-2.9 5.2-1.2 7.9 7.6 9.9 7.6 9.9l-.5-6.5c4.8-1.9 5.3-8.1 2.2-11.5M126.8 167.4l-24.1 8.7-25.3-8.7s13.6 11.8 24.1 17.5c0 0 14.9-7.1 25.3-17.5"/><path d="M53.5 102.7c-19.6 33.3-3.2 89.7 45.3 111.1 0 0 15.1-9.9 38.4-41.2 0 0-16.9 14.8-38.4 26.8-21.4-10.3-59.2-44.7-45.3-96.7"/></g><g fill="#203232"><path d="M605 62.2h-3v8h-1.9v-8h-3v-1.8h8v1.8zM618.8 70.1h-1.9v-7.4l-2.4 6.4h-2.1l-2.4-6.4V70h-1.9v-9.8h2.9l2.5 6.6 2.5-6.6h2.9v9.9z"/></g></svg>