<svg xmlns="http://www.w3.org/2000/svg" xml:space="preserve" id="Layer_1" x="0" y="0" viewBox="0 0 200 200"><style>.st0{fill:#6499d1}.st1{fill:#004482}.st3{fill:#eee}</style><g id="PRixBQ.tif"><path d="M98.2 7.8h3.6c.2.1.3.1.5.2 1.9.2 3.7.9 5.4 1.8 16.6 9.6 33.1 19.1 49.7 28.7 5.8 3.3 11.6 6.7 17.4 10 2.2 1.3 3.9 3 5 5.3 0 .4-.5.5-.7.7-10.3 5.9-20.5 11.8-30.8 17.8-.3.1-.5.4-.8.3-.4-.2-.4-.5-.6-.8-12.2-20.1-36.4-30.3-59.3-24.9-26.1 6.2-43.8 30.2-42 57 .5 8.1 2.8 15.6 6.7 22.7.1.3.4.5.3.8s-.5.4-.8.6c-2.9 1.7-5.8 3.4-8.7 5-7.6 4.4-15.3 8.8-22.9 13.2-.2-.3-.4-.7-.6-1-.8-1.4-1.1-3-1.6-4.6V59.5c.2-.2.1-.4.2-.6.9-4.3 3.1-7.8 6.8-10.2 3.1-2 6.3-3.7 9.5-5.5 6.9-3.9 13.7-7.9 20.6-11.8 12.5-7.2 25.1-14.5 37.6-21.7 1.3-.7 2.6-1.2 4.1-1.5.4-.2.9-.1 1.4-.4" class="st0"/><path d="M20.1 146.1c7.6-4.4 15.3-8.8 22.9-13.2 2.9-1.7 5.8-3.4 8.7-5 .3-.2.6-.2.8-.6.3.1.4.4.5.6 12.9 21.1 36.8 31.1 60.6 25 14.7-3.8 25.9-12.4 33.7-25.5.1 0 .2 0 .3.1 4.3 2.5 8.6 5 12.9 7.4 4.1 2.3 8.1 4.7 12.2 7l7.2 4.2c-1.2 2.3-3 4.2-5.3 5.5-22.4 12.9-44.8 25.8-67.1 38.7-1.3.8-2.7 1.3-4.1 1.6-.4.1-.9 0-1.3.3H98c-.1-.2-.3-.2-.5-.2-1.6-.3-3.1-.7-4.5-1.5-22.6-13-45.2-26-67.7-39.1-2.4-1.2-4-3.1-5.2-5.3" class="st1"/><path d="m179.9 146.1-7.2-4.2c-4.1-2.4-8.1-4.7-12.2-7-4.3-2.5-8.6-5-12.9-7.4-.1 0-.2 0-.3-.1l-.2-.2c-7.6-4.4-15.3-8.8-22.9-13.2-.2-.1-.4-.3-.7-.2-.2-.3-.5-.5-.8-.7-1.1-.6-2.2-1.2-3.3-1.9-4.5-2.6-8.9-5.1-13.4-7.7-2-1.2-4.1-2.2-6-3.5.2-.2.4-.3.7-.5 4.8-2.8 9.6-5.5 14.4-8.3 2.8-1.6 5.7-3.2 8.4-4.9l.6-.3c7.5-4.3 15.1-8.7 22.6-13 .2-.1.5-.2.6-.5.3.1.6-.1.8-.3 10.3-5.9 20.5-11.8 30.8-17.8.3-.2.7-.2.7-.7.4.4.7 1 .9 1.5.7 1.3.9 2.8 1.4 4.2v81.3c-.2.1-.2.4-.2.5-.3 1.8-.8 3.4-1.8 4.9m-14.6-52.3V96c0 .7-.1.9-.9.9-1.5-.1-3 0-4.5 0-.6 0-.8.2-.8.8v4.6c0 .6.1.8.7.8h4.6c.7 0 .8.2.8.9v4.6c0 .5.1.7.7.7h4.6c.7 0 .8-.2.8-.8v-4.6c0-.5.1-.7.7-.7h4.7c.6 0 .7-.2.7-.8v-4.6c0-.5-.1-.7-.7-.7H172c-.6 0-.7-.2-.7-.7v-4.7c0-.5-.1-.7-.6-.7h-4.8c-.5 0-.7.2-.6.7zM142.5 106v2.5c0 .5.2.6.6.6h4.8c.6 0 .7-.2.7-.7v-4.7c0-.5.1-.7.6-.6h4.8c.5 0 .6-.2.6-.7v-4.7c0-.6-.2-.7-.8-.7h-4.6c-.5 0-.7-.1-.7-.7v-4.7c0-.6-.2-.7-.7-.7h-4.7c-.6 0-.7.2-.7.7v4.7c0 .5-.1.7-.6.7H137c-.5 0-.6.2-.6.7v4.7c0 .6.2.7.8.7h4.7c.5 0 .6.1.6.6z" style="fill:#00589b"/><path d="M147.4 72.5c-.1.3-.3.4-.6.5-7.5 4.4-15.1 8.7-22.6 13l-.6.3-.3-.6c-5.8-9.8-17.9-15-29.1-12.5C79.9 76.5 70.7 90 73 104.5c.5 3.2 1.5 6.3 3.3 9.1.1.2.2.5.4.7 6.1 10 18.1 15 29.5 12.3 7.5-1.8 13.4-6.1 17.4-12.8.3-.1.5.1.7.2 7.6 4.4 15.3 8.8 22.9 13.2.1 0 .1.1.2.2-7.8 13.1-19 21.7-33.7 25.5-23.9 6.1-47.8-3.9-60.6-25-.1-.2-.2-.5-.5-.6 0-.3-.2-.6-.3-.8-3.9-7.1-6.2-14.6-6.7-22.7-1.8-26.8 15.9-50.8 42-57 22.9-5.4 47.1 4.7 59.3 24.9 0 .2.1.6.5.8" class="st3"/><path d="M76.4 113.6c-1.8-2.8-2.8-5.8-3.3-9.1-2.3-14.5 6.8-28 21.2-31.2 11.1-2.5 23.2 2.7 29.1 12.5l.3.6c-2.7 1.8-5.6 3.3-8.4 4.9-4.8 2.8-9.6 5.5-14.4 8.3-.2.1-.4.3-.7.5l-.6.3c-3.6 2.1-7.2 4.2-10.8 6.2-4.1 2.2-8.3 4.6-12.4 7" class="st0"/><path d="M76.4 113.6c4.1-2.4 8.3-4.7 12.4-7.1 3.6-2.1 7.2-4.2 10.8-6.2l.6-.3c1.9 1.3 4 2.4 6 3.5 4.4 2.6 8.9 5.1 13.4 7.7 1.1.6 2.2 1.2 3.3 1.9.3.2.6.3.8.7-4 6.7-9.8 11-17.4 12.8-11.4 2.8-23.4-2.3-29.5-12.3-.2-.2-.3-.5-.4-.7" class="st1"/><path d="M165.3 93.8v-2.3c0-.5.1-.7.6-.7h4.8c.5 0 .6.2.6.7v4.7c0 .5.1.7.7.7h4.7c.6 0 .7.2.7.7v4.6c0 .6-.1.8-.7.8H172c-.5 0-.7.1-.7.7v4.6c0 .6-.1.8-.8.8h-4.6c-.6 0-.7-.2-.7-.7v-4.6c0-.6-.1-.9-.8-.9-1.5.1-3 0-4.6 0-.6 0-.7-.2-.7-.8v-4.6c0-.6.1-.8.8-.8h4.5c.7 0 .9-.2.9-.9zM142.5 106v-2.4c0-.5-.1-.6-.6-.6h-4.7c-.5 0-.8-.1-.8-.7v-4.7c0-.5.1-.7.6-.7h4.8c.5 0 .6-.2.6-.7v-4.7c0-.5.1-.7.7-.7h4.7c.5 0 .7.1.7.7v4.7c0 .6.2.7.7.7h4.6c.5 0 .8.1.8.7v4.7c0 .5-.1.7-.6.7h-4.8c-.5 0-.7.1-.6.6v4.7c0 .5-.1.7-.7.7h-4.8c-.5 0-.6-.1-.6-.6.1-.7 0-1.5 0-2.4" class="st3"/></g></svg>