<svg xmlns="http://www.w3.org/2000/svg" xml:space="preserve" id="Layer_1" x="0" y="0" viewBox="0 0 107.6 114"><style>.st0{fill:#fff}</style><g id="HOsbAF.tif"><path d="M7.1 36.6c.2-.6.2-1.3.5-1.9.8-1.9 2.4-3.1 4.3-3.8 1-.4 2-.7 3-1.1.2-.1.3-.2.4-.3-.7.1-1.4.2-2 .5-.4.2-.7.4-1.1.5-.9.2-1.5-.4-1.3-1.3s1-1.6 2-1.8c.5-.1 1-.2 1.5-.4 1.4-.6 2-1.9 1.5-3.3-.1-.2-.2-.4-.4-.6-.3-.3-.4-.6-.1-.9.3-.4.7-.7 1.1-1 .5-.5 1.1-.8 1.7-1.3.9-.8.9-1.6-.2-2.3-.5-.4-.9-.8-1.2-1.3-.8-1.4-.3-2.6 1.3-3q1.05-.3 2.1 0c1.3.4 1.8 1.5 1.4 2.9-.1.4-.3.9-.3 1.3 0 .7.3 1.2 1 1.3.9.1 1.9 0 2.8.1.5 0 1 0 1.5.1s.7.4.7.9c0 .3-.1.7-.2 1-.1.2 0 .4.1.6.7.7 1.6.9 2.5 1.1s1.8.3 2.7.5c1.3.3 1.7.8 1.9 2.1h.1c1 .1 1.9.5 2.7 1 .6.4 1.1.8 1.8 1.1.6.3 1.2.4 1.8.6h.2c1.9.7 3.7 1.4 5.6 2.2 1.2.5 2.3 1.3 2.9 2.4.4.7.5.9-.4 1.1-.6.1-1.3.1-1.9-.1-1.2-.3-2.3-.7-3.5-1.1-.3-.1-.6-.2-.9-.2-1.4-.2-2.2.4-2.3 1.7-.1.8 0 1.6 0 2.3.1 2.3.3 4.6.5 7 .3 4.5.7 9 1.8 13.5.7 2.9 1.6 5.7 2.9 8.3.9 1.8 2 3.4 3.3 5 1.8 2.2 3.7 4.5 5.6 6.6 2.1 2.3 4.7 4 7.3 5.6 4.8 2.9 10.1 4.6 15.5 5.6.1 0 .3-.1.5-.2 1-1 2-2 3.1-3 .6-.6 1.3-1.1 2.1-1.3.7-.2 1.4-.2 2 .2v.6c0 .6-.4 1.1-.7 1.6-.4.5-.9 1.1-1.3 1.6-.2.2-.5.6-.3.9.2.2.6.3.9.3.6 0 1.2 0 1.8-.1.9-.1 1.8.1 2.7.4.5.1.9.3 1.4.4 1 .2 1.9-.1 2.6-.8.1-.1.2-.2.3-.4.8.8 1.7 1 2.7 1 1.1 0 2.1-.1 3.2-.1.4 0 .8 0 1.2.1.7.2 1.1.6 1.1 1.4 0 .5-.1.9-.2 1.4 0 .1-.2.2-.3.3-.9.5-1.9.7-2.9.8-1.1.2-2.3.3-3.4.8-.1 0-.2.1-.2.1-.3.2-.6.5-.9.6-.3 0-.7-.2-1-.3-1-.3-2-.2-3 .1-1.1.3-2.3.7-3.4 1.1-.9.3-1.8.4-2.7.4s-1.7.2-2.6.3c-2.2.2-4.5.5-6.7.6-.9.1-1.9.1-2.8.1h-2.2c-.4 0-.9-.1-1.3-.1-3.5-.3-7-.6-10.5-1-4-.4-7.8-1.4-11.5-2.8-4-1.5-7.7-3.6-11.1-6.2-1.8-1.4-3.5-2.8-5.2-4.3-1.4-1.2-2.5-2.8-3.7-4.3-3.5-4.3-6.4-9-8.8-14-2-4.2-3.8-8.6-4.8-13.1-.6-2.5-1.2-5-1.9-7.5-.4-1.5-.9-2.9-1.6-4.2-.3-.6-.4-1.2-.5-1.8-.3-.4-.3-.6-.3-.8m7.6 18.1c.3.4.4.9 1 1v-.3c0-.1 0-.3-.1-.4-.4-1.4-1-2.7-1.7-4l-.3-.3s-.1 0-.1.1c.1 1.3.8 2.4 1.1 3.6-.1-.1-.2-.3-.3-.4-.4-.6-.7-1.3-1.1-1.9-.1-.2-.3-.4-.5-.5 0 0-.1 0-.1.1v.3c.2.6.4 1.2.6 1.7.4 1 .9 1.9 1.4 2.9s.9 2 1.4 3c.4.8 1 1.6 1.9 2.2-.1-.2-.1-.2-.1-.3-.6-.9-1.1-2-1.4-3-.3-1.1-.8-2.2-1.5-3.1-.1-.3-.1-.5-.2-.7m20.8 13.6c.6.5 1.1 1 1.7 1.5s1.2.9 1.9.9c.4 0 .8.2 1.1.5.6.4 1 1 1.3 1.6.1.3.2.7.3 1 .1.5-.3.9-.8.8-.6-.1-1.2-.2-1.7-.5-.9-.6-1.9-1.1-2.9-1.4-.2-.1-.4-.1-.7-.1v.1l.3.3c.5.3 1 .7 1.6 1 2.3 1.1 4.6 2.1 6.9 3.2 1 .5 1.9 1 2.8 1.6 1.7 1.1 2.8 2.8 4.3 4.2-.9.4-1.9.3-2.8.1-.4-.1-.7-.2-1-.4-.1-.1-.3-.3-.3-.5 0-.1.2-.3.4-.4s.3-.1.5-.2v-.1c-.8-.1-1.6-.3-2.4-.4-.3 0-.5.2-.3.5.3.6.5 1.1 1.1 1.4 1.1.6 2.3.7 3.5.8.8.1 1.5.1 2.4.2-.3.5-.6.9-1 1.4.2 0 .3.1.4.1h.5c-.1.1-.2.1-.3.2-.5.4-.5.6 0 .9.3.2.6.4 1 .5h.3c.9-.4 1.4-.2 2 .6.2.3.4.6.6.8.4.5.7.6 1.2.2.3-.2.6-.6.9-.8.3-.3.7-.5 1-.8 0 0 0 .1.1.1-.4.5-.8 1-1.1 1.4l.1.1c.4-.2.8-.4 1.1-.6 1.1-.8 2.4-.8 3.7-.5 1.6.3 3 1.1 4.5 1.7.4.2.8.4 1.3.5.9.1 1.8.4 2.6.6.7.2 1.3.4 2 .2.4-.1.8-.3 1.2-.4l.3-.3c-.1-.1-.2-.3-.3-.3-.5-.2-1.1-.3-1.6-.5-1-.3-2-.5-2.9-.9-.6-.2-.7-.5-.3-1h-.2c-.9.2-1.8.2-2.7-.1-1.5-.5-2.7-1.4-3.6-2.6-.5-.2-.9-.5-1.5-.7-2.6-.7-5-1.7-7-3.5-.8-.7-1.5-1.5-2-2.4-.1-.1-.1-.4 0-.4.3-.2.2-.3 0-.5-.3-.3-.5-.7-.8-1-.5-.5-1-1-1.4-1.5-1-1.5-2-3.1-3-4.6-.1-.1-.1-.3-.2-.3-.7-.4-1.1-1.1-1.6-1.7-.1-.1-.2-.1-.3-.3-.1.5-.1.9-.2 1.2-.2-.5-.4-1-.7-1.4-.5-.7-1-1.3-2-1.3 0-.6.3-1.1.8-1.4s.5-.4.1-.9c-.2-.2-.3-.5-.4-.8-.1-.2-.1-.4-.1-.6-.4-1.6-.9-3.2-1.3-4.8-.3-1.1-.5-2.2-.7-3.4 0-.2-.2-.4-.2-.4-.1 0-.4.1-.5.2q-.6.6-.9 1.5c0 .1-.1.1-.1.2h-.1c.1-.7.2-1.4.4-2 0-.2.2-.4.4-.5.2.1.3.2.5.4.1-.3.3-.6.4-.9.2-.7-.1-1-.8-.9h-.1c0-.1.1-.3.1-.4.3-.9.4-1.8.2-2.7-.1-.4-.2-.5-.5-.4.1-1.3.2-2.7.2-4 0-.6-.1-1.2-.2-1.8-.1-.4-.3-.6-.6-.5.2-1.2.4-2.4.5-3.7.1-1 .1-2-.4-3-.3-.6-.8-.8-1.4-.6l-.6.3c-.2.1-.5.2-.7.3-1.2.2-2.4.4-3.6.7-.4.1-.9.3-1.3.4.5.4 1.2.6 1.6 1.2-1.3-.1-2.4-.5-3.5-.7 0 .1 0 .1-.1.1-.2.9-.5 1.2-1.5 1.1-.6 0-1.2-.1-1.8-.1.1.1.1.1.2.1.6.2.7.7.2 1.1-.4.3-.9.6-1.4.8-.7.3-1.5.4-2.2.2-.3-.1-.5 0-.7.2-.3.3-.3.6-.2 1 .1.2.2.5.3.7.3.5.6 1 .8 1.5s.1.7-.3 1.1l-.1.1c0 .4-.4.4-.7.5-.5.1-1 .1-1.4.2-.7.1-1 .5-1.1 1.2 0 .2 0 .4-.1.6h-.2c-.5-.1-.8.1-.7.6 0 .6.3 1.2.8 1.6.2.1.6.2.7.1.3-.3.6-.1.9 0 1.6.6 2.3 1.5 2.3 3.2 0 .6 0 1.3-.1 1.9 0 .2-.1.4-.2.5-.2 0-.4 0-.5-.1-.3-.4-.6-.9-.8-1.4-.3-.9 0-1.4 1-1.6-.4-.5-.8-1-1.2-1.4-.3-.3-.7-.3-.9-.1-.6.6-1.2 1.3-1.8 1.9.3.2.7.4.9.7.4.3.8.7 1.2 1.1.3.4.2.8-.2 1.1-.1.1-.3.2-.5.3 1.5.2 2.2 1.2 2.6 2.5.1.4.3.9.4 1.3.2.6.9.8 1.3.3.1-.1.2-.2.3-.4.2-.2.5-.3.8-.1.1 0 .2.1.3.1-.1-.2-.2-.3-.4-.4-.7-.6-1.4-1.2-2-1.9-.3-.2-.5-.5-.7-.8-.1-.1-.1-.3-.1-.4s.2-.1.3-.1c.4 0 .7.1 1.1.1v-.8c0-.4-.1-.9-.1-1.3 0-.3.1-.6.3-.8s.5-.3.8-.4v.2c0 .5-.1.9-.2 1.4 0 .5-.1 1 0 1.5 0 .4.3.6.7.3s.8-.7 1.2-1.1c.5-.6.8-.6 1.2 0 .3.4.7.9 1 1.3.2.3.3.6.4.9.1.4-.1.8-.6.8-.4 0-.8 0-1.1-.1-.4-.1-.8-.4-1.2-.6.2.5.6.9.9 1.2.5.4 1 .8 1.5 1.3.6.5.9 1.2.7 2-.1.7.2 1.2.5 1.6q.3.45.9.3c.3-.1.5-.1.8-.2.1.3.2.5.3.8l.3.3.3-.3c.1-.4.1-.8.2-1.2 1.1.2 2 .7 2.4 1.9.1.4.2.7.4 1.1.1.2.2.6.6.4.3-.1.1-.4 0-.7l-.9-2.1c-.1-.1-.1-.3-.1-.4.2 0 .3.1.3.2.6.6 1.2 1.3 1.8 1.9.3.4.6.8.8 1.3.2.6 0 1.1-.6 1.4-.2.1-.4.2-.6.2-1 .1-1.5.1-1.9.1m-17-29.9c.6-.1 1.1-.2 1.6-.4 1.2-.5 2.3-1 3.5-1.6s2.3-1.2 3.7-1.3c.9-.1 1.9-.1 2.8-.2 2-.2 4-.5 6-1.1.7-.2 1.4-.5 2.2-.6 1.4-.3 2.4-.9 3.3-2 .4-.5.6-1.1.5-1.8-.1-.6-.3-.8-.9-.8-4.2-.2-8.2.4-12.3 1.4-3.9 1-7.7 2.4-11.6 3.1-.2 0-.5.3-.7.4.2.2.4.4.6.5.3.2.6.3 1 .5-.2.1-.4.2-.5.2-.1.1-.3.2-.3.3s.2.3.3.4c.2.2.5.3.8.5.2.1.3.3.1.4-.3.2-.7.4-1 .3-.6-.1-1.2-.3-1.8-.5-1.1-.5-1.3-1.1-1-2.2v-.1c-.4.1-.8.1-1.1.2-1.1.2-2.2.5-3.2 1.2-.9.6-1.4 1.5-1.2 2.6.2.8.6 1.5 1.1 2.2 0 .1.2.1.3.1 0-.3-.1-.5-.1-.7-.1-1-.1-2 .3-2.9.4-1 1.6-1.4 2.8-.8-.3.1-.5.2-.8.3-.5.3-.7.7-.4 1.3.4.9 1.9 1.8 2.9 1.8.4 0 .6-.2.7-.6v-.8c.3 0 .6 0 .9-.1.6-.1 1.1-.2 1.7-.2.4 0 .5.1.4.5-.4.1-.5.2-.6.5m19.4 49.5c0 .1-.1.1-.1.2.2.1.4.3.6.4 2.4 1.6 5 2.6 7.6 3.7 1.9.8 3.9 1.5 5.9 1.8 3.5.5 6.9 1 10.4 1.5 3.2.4 6.4.5 9.7.1.6-.1 1.1-.2 1.7-.3-.8-.4-1.6-.6-2.4-.5-1 0-2 .1-3.1.1-1.2.1-2.4 0-3.6-.5-.1-.1-.3-.1-.4 0-1.5.3-3 .3-4.6.1s-3.3-.4-4.9-.6c-.7-.1-1.3-.2-1.9-.4L48.9 92c-2.8-1.1-5.6-2.2-8.2-3.7-.5-.3-1.2-.5-1.8-.7h-.3c.1.2.2.3.4.4 1.6 1 3.2 1.9 4.9 2.6.3.1.7.4 1 .5l-.1.1c-.1 0-.2 0-.3-.1-1.5-.7-3-1.3-4.5-2q-.9-.6-2.1-1.2m-7.4-8.2c-1 .2-1.7-.3-2.2-1.1l-.9-1.5c-.2-.3-.4-.6-.9-.5-.1 0-.1 0-.2-.1q-1.05-.45-1.5-1.5c-.2-.6-.4-1.1-.6-1.7-.4-1.2-1-2.1-2.1-2.8l-.3-.3c-.3-.5-.5-1.1-.8-1.5-.5-.7-1.1-1.4-1.7-2.1-.8-1-1.5-2.1-2-3.3-.4-1.2-1.1-2.4-1.9-3.4l-.3-.3v.2c.1.2.1.4.2.6 1 2.7 2.4 5.2 4 7.6s3.2 4.7 4.7 7.2c1.2 2.1 2.6 4 4.4 5.4q1.8 1.35 3.3 3c.8.8 1.8 1.2 3 1.4.2 0 .4-.1.6-.1 0-.2 0-.4-.1-.6-.6-.9-1.5-1.6-2.5-1.9-.5-.1-.8-.3-1.1-.7l-1.2-1.2c-.3-.2-.3-.3.1-.8m1.9-10.3q0-.15 0 0c-.3-.3-.6-.4-.8-.6-.3-.2-.3-.5.1-.6.2-.1.5-.2.7-.3s.4-.2.6-.4c-.2-.1-.2-.1-.3-.1-.7-.2-1.5-.4-2.2-.6-.4-.1-.8-.2-1.1-.2-.1 0-.2 0-.3.1 0 .1 0 .3.1.4.1.2.3.3.5.5-.4-.1-.8-.3-1.3-.4.1.4.2.6.2.9-.4 0-.7-.1-1.1-.1.4.7 1.1 1 1.4 1.7H28c.8.7 1.6 1.4 2.5 2l-.1.1c-.6-.3-1.2-.5-1.8-.8l-.1.1c.1.2.2.4.4.5.4.3.7.5 1.1.7.9.5 1.9 1 2.9 1.6.6.3 1.1.6 1.7.9.2.1.4.1.5.2 0 0 0-.1.1-.1-.4-.4-.8-.7-1.2-1.1.3-.6.2-.8-.2-1.2-.2-.2-.5-.4-.7-.6-.3-.2-.4-.5-.1-.8-.6-.4-1.2-.8-1.7-1.2 0 0 0-.1.1-.1.2-.5.6-.5 1-.5m-6.6-40.5c-.1-.3-.2-.7-.2-1 0-.4.3-.6.6-.3s.5.6.8.9c.2.3.4.6.7.9.6.6 1.3.4 1.6-.4.2-.6.2-1.1 0-1.7.5.4.9 1 1.5 1.2l.1-.1c-.4-.5-.7-1-1.1-1.5.1-.2.3-.4.4-.7s0-.5-.3-.5h-.8c-2.2.6-4.4 1.1-6.6 1.7-1.7.4-3.3.9-5 1.4-.2.1-.3.2-.5.2v.1c.2 0 .4 0 .6-.1 1.1-.3 2.2-.7 3.3-.9 1.8-.2 3.4-.4 4.9.8m1 30.2c.1.2.2.3.3.5.1.4.3.7.4 1.1s-.1.6-.5.6c-.1 0-.3 0-.4-.1-.6-.2-1.2-.5-1.8-.7-.4-.1-.8-.3-1.1-.3-.4-.1-.6.2-.5.6l.6 1.2c.1.1.1.3.1.4 0 0-.1 0-.1.1.2.1.4.2.7.3 1.1.5 2.1 1 3.2 1.5.5.2 1 .5 1.5.7l.9.3h.4c.1-.1 0-.3 0-.4-.4-.7-.7-1.4-1.4-1.8-.2-.1-.4-.4-.4-.6-.2-.4-.3-.8-.4-1.2-.2-.6-.3-1.3-.5-1.9-.2-.4-.5-.5-1-.3m9.1 19.6c.5-.1.9-.1 1.4-.2.2-.1.4-.3.6-.4-.2-.2-.4-.4-.6-.5-1-.4-2-.8-3-1-.7-.2-1.5-.3-2.3-.3-.5 0-.6.3-.3.7.4.5.8 1 1.5 1.1.1 0 .2 0 .3.1.7.4 1.6.5 2.4.5M23.2 22.2c0 .3-.1.6 0 .8.2 1.1.9 1.9 1.7 2.5.3.2.7.4 1.2.3.4-.1.6-.2.5-.6 0-.3-.1-.6-.2-.8q-.15-.45.3-.3c.2.1.4.2.6.2 0 0 0-.1.1-.1-1-1.3-2.7-1.3-4.2-2M85.9 90c-.4 0-.9-.1-1.3-.1-1.6-.2-3.2-.4-4.8-.5-.7-.1-1.4 0-2 .3-.3.1-.5.4-.5.8.5 0 1 .1 1.4.1h1.9c1 .1 2 .2 3 .2.5 0 1-.1 1.5-.1.4-.2.7-.3.8-.7M18 16.6c-.1-.1-.1-.2-.2-.3s-.1-.2-.1-.3c-.2-.4 0-.6.4-.6h2.2c.2 0 .5-.2.4-.4-.2-.4-.4-.8-.7-1.1-.5-.4-1-.5-1.6-.2-.7.4-1 .9-1.1 1.7 0 .6.2 1 .7 1.2m46.1 73.3c0-.2 0-.4-.1-.6-.1-.6-.4-.8-1-.5-.5.3-1 .7-1.5 1.1-.2.1-.3.4-.3.6 0 .1 0 .3.1.4 0 .1.2 0 .3 0 .2-.1.4-.2.6-.4s.4-.1.5.1c0 .1.1.3.1.4.1.1.2.1.3.1.4 0 1-.8 1-1.2m-7.7 3.2c-.5-.4-1-.6-1.6-.7-1.2-.3-2.5-.5-3.7-.8-.6-.1-1.2-.2-1.9-.4 1 1 6.2 2.4 7.2 1.9m-36-50.9v.1c-.4 0-.8-.1-1.1-.1-.1 0-.3.1-.4.1.1.1.1.3.2.4.7.5 1.9.3 2.4-.4.2-.3.2-.6-.2-.8-.2-.1-.5-.2-.7-.2-.7-.1-1.4-.1-2.1-.1h-.3v.1c.7.3 1.4.6 2.2.9m17.5 34.5-.1.1c.6.5 1.2 1.1 1.9 1.5.6.3 1.2.4 1.9.5.2 0 .5-.1.7-.2-.2-.1-.4-.4-.6-.4-.7-.1-1.3-.5-1.9-.9-.1-.1-.2-.1-.3-.2-.6-.1-1-.4-1.6-.4M23.6 25.3c-.3-.7-1-1.1-1.6-.9-1 .3-1.9.6-2.8.9l-.6.3c0 .1 0 .1.1.2.3-.1.6-.1.9-.2.2-.1.4-.2.7-.2h2.3c.2-.1.6-.1 1-.1m16.7 51.5v.1c.7.3 1.5.7 2.2.9.8.2 1.6.3 2.4.1-.1-.1-.2-.2-.4-.2-.3-.1-.7-.1-1.1-.2-.3-.1-.5-.2-.8-.3-.7-.4-1.5-.5-2.3-.4m58.3 13.3c-1.6-.3-3.1-.2-4.7.1v.2c1.6.4 3.1 0 4.7-.3M46.9 31.3s-.2.1-.3.1c.1.1.1.2.2.3s.2.1.3.2c.5.3 1 .5 1.3 1.1.1.2.3.2.4-.1s0-.7-.3-1c-.5-.3-1-.5-1.6-.6m-3.4 51.6c-.4-.6-2.5-1.5-2.9-1.3.3.7 1.9 1.5 2.9 1.3m21 7.6c0 .3.3.6.4.5.5-.4.9-.7 1.4-1.1.1-.1.1-.2.1-.3 0 0-.2-.1-.3-.1-.6.1-1.1.3-1.4.7-.1 0-.1.2-.2.3M16.2 42.3c-.3.1-.5.1-.7.2-.1.1-.2.2-.2.3.1.4.8.7 1.1.4.2-.2.3-.4.4-.6zm6.2-21.7c.7.1 1.4 0 1.9-.4-.5-.4-1-.4-1.5-.2-.2.1-.4.2-.4.6m-5.7 28.2c0-.7-.5-1.2-1-1.1-.2 0-.4.2-.4.3s.1.3.3.4c.4.2.7.3 1.1.4m26.5 31.5c-.8-.5-1.5-.8-2.4-.9.2.6 1.6 1.2 2.4.9m-28-34c.2.3 1.1.9 1.4.8.2 0 .3-.2.4-.3 0 0 0-.2-.1-.3-.2-.2-1.3-.4-1.7-.2m23.2 29.8c-.4-.5-2-1.2-2.4-1 .5.8 1.5.7 2.4 1M13.3 49s.1 0 .1-.1c-.1-.3-.2-.7-.4-1-.1-.1-.3-.2-.5-.3-.1.2-.2.4-.2.6.2.5.6.7 1 .8m58.5 42.5c-.6 0-1.1.3-1.5.7-.1.1 0 .3-.1.5h.1c.6-.3 1.2-.7 1.5-1.2m-5.5-.7c-.4 0-1.1.4-1.3.7-.1.2 0 .3.2.3.4.1 1.1-.5 1.1-1m-31.2-24c0-.6-.5-1-1-.9-.1 0-.2.1-.2.2s.1.2.1.2c.3.2.7.3 1.1.5m16.5 18.9c-.5-.2-1.3-.1-1.5.2.4.5 1.1.3 1.5-.2m-6.8-.5c.2.3.6.5 1.3.5-.1-.2-.1-.4-.2-.6-.2-.2-.8-.1-1.1.1m22.4 6.3c.5-.1.8-.4 1.1-.7 0 0 .1-.2 0-.2 0-.1-.1-.1-.2-.1-.5 0-.9.5-.9 1m-47.7-35c.5.5 1.1.5 1.4-.1-.4-.1-.9-.1-1.4.1m5.6 11c0 .1-.1.1-.1.2.5.3 1.1.6 1.6.9 0 0 0-.1.1-.1-.4-.6-.9-1-1.6-1m44 24c-.5-.1-1 .2-1.1.4v.3c0 .1.2.1.3.1zM22.9 65.8c.3.5.8.8 1.3 1.1-.2-.7-.7-1.1-1.3-1.1m16.6 18.7c-.5-.1-1 .1-1.2.4.5.2.9.1 1.2-.4m-6.7-9.4V75l-1.5-.3v.1c.4.2.9.5 1.5.3m14.6 15.8.1-.1c0-.1 0-.3-.1-.4-.2-.2-.6-.1-.9.2zm-4.5-2.4c.1 0 .1 0 .2-.1 0-.2.1-.4.1-.6-.2 0-.4-.1-.6-.1-.1 0-.2.1-.3.2q.45.3.6.6m-31.4-49c.2.1.3.2.4.3.2.1.4 0 .5-.2.1-.1.1-.2.1-.3-.2 0-.4-.1-.5 0-.1 0-.2.1-.5.2m27.4 42.7v.2c.3.1.5.2.8.3.1 0 .2-.1.3-.2-.1-.1-.1-.2-.2-.2-.3-.1-.6-.1-.9-.1m3.7 2.3v.1c.5.4.9.4 1.3 0-.4 0-.8-.1-1.3-.1m-7.9-8.7v-.1c-.4-.1-.9-.2-1.3-.4.4.5.9.7 1.3.5M15.2 49.1s0 .1-.1.1c.3.2.7.3 1.1.5-.1-.5-.5-.7-1-.6m54 42.8s0 .1.1.1c.6-.1 1-.3 1.2-.9-.5.3-.9.6-1.3.8M55.2 79l.1-.1c-.1-.2-.2-.4-.3-.5 0 0-.3 0-.3.1-.1.1-.1.3-.1.4.2.1.4.1.6.1m25.1 6.8c-.2.1-.4.3-.6.4.1.1.3.3.4.3.2-.1.3-.3.4-.4 0-.1-.1-.2-.2-.3M17.4 43.6v.2c.2.1.4.2.7.2.1 0 .2-.1.2-.2s-.1-.2-.2-.2c-.2-.1-.4 0-.7 0M23 68.8l-.1.1c.4.3.8.7 1.1 1-.1-.6-.5-.9-1-1.1m-5.9-24c0-.4.1-.7-.2-.7-.1 0-.3.3-.4.4q.15.15.6.3m57.6 50.4c.5.4.8.3.9-.2-.3-.1-.6-.1-.9.2M44 82.2l.1-.1c-.1-.1-.2-.3-.3-.3h-.6v.2c.3 0 .6.1.8.2m7 5v-.1c-.7-.1-1.3-.1-2-.2v.2c.7 0 1.3.1 2 .1m9.5 2.4c0 .1.1.1.1.2.4-.2.7-.5 1.1-.7 0-.1-.1-.1-.1-.2-.4.2-.7.5-1.1.7M25.3 57.2c0-.2 0-.3-.1-.4 0-.1-.2-.2-.2-.2-.1.1-.2.2-.2.3-.1.3.2.3.5.3m62.8 32.9c-.1-.1-.2-.2-.2-.3l-.4.4.2.2c.1 0 .2-.1.4-.3m-31.8 1.3c.6-.1.8-.3.5-.8-.1.3-.3.5-.5.8m.9-10.7c-.2-.4-.3-.5-.6-.5-.1 0-.1.1-.2.2 0 0 .1.1.1.2.2 0 .4 0 .7.1m35.2 8.9c-.1 0-.1 0-.2-.1-.1.2-.2.4-.2.5.1 0 .2.1.3 0 .3-.1.1-.3.1-.4M22.9 63.3v.2h.6v-.3c-.2.1-.4.1-.6.1m61.4 20.5h-.2c-.1.2-.2.3-.2.5 0 .1.2.1.3.2.1-.3.1-.5.1-.7M35.2 80c0-.1 0-.1.1-.2-.3-.1-.6-.2-1-.4 0 .1 0 .1-.1.2.3.2.6.3 1 .4M19.7 54.6v-.2c-.2 0-.5.1-.7.1v.2c.2-.1.5-.1.7-.1m3.8-16c0-.1-.1-.1 0 0-.2 0-.4 0-.6.1v.1c.1.1.2.1.3.2.2-.2.2-.3.3-.4m16.6 35.6c0-.1.1-.1.1-.2-.1-.1-.3-.2-.4-.3 0 .1-.1.2-.1.2.1.1.3.2.4.3m-1.8-1.1c0-.1.1-.1.1-.2-.1-.1-.2-.2-.3-.2l-.2.2c.2.1.3.2.4.2m2 13.9h-.1c-.1.1-.1.3-.2.4h.5c-.1-.2-.2-.3-.2-.4"/><path d="M35.5 68.3c.4 0 .8-.1 1.3-.2.2 0 .4-.1.6-.2.6-.3.8-.8.6-1.4-.2-.5-.4-.9-.8-1.3-.6-.7-1.2-1.3-1.8-1.9-.1-.1-.2-.1-.3-.2 0 .1.1.3.1.4l.9 2.1c.1.2.3.5 0 .7-.3.1-.5-.2-.6-.4-.2-.4-.3-.7-.4-1.1-.4-1.2-1.2-1.7-2.4-1.9-.1.4-.1.8-.2 1.2 0 .1-.2.2-.3.3l-.3-.3c-.1-.2-.2-.5-.3-.8-.3.1-.6.1-.8.2-.3.1-.7 0-.9-.3-.4-.5-.6-1-.5-1.6.1-.8-.2-1.5-.7-2s-1-.9-1.5-1.3q-.6-.45-.9-1.2l1.2.6c.4.1.8.2 1.1.1.4 0 .7-.4.6-.8-.1-.3-.2-.6-.4-.9-.3-.5-.6-.9-1-1.3-.5-.6-.7-.6-1.2 0-.4.4-.8.7-1.2 1.1-.4.3-.6.1-.7-.3v-1.5c0-.5.1-.9.2-1.4v-.2c-.3.1-.6.2-.8.4s-.3.5-.3.8c0 .4.1.9.1 1.3v.8c-.4-.1-.8-.1-1.1-.1-.1 0-.3 0-.3.1s0 .3.1.4c.2.3.5.5.7.8.7.6 1.4 1.3 2 1.9l.4.4c-.1 0-.2-.1-.3-.1-.3-.1-.6-.1-.8.1-.1.1-.2.2-.3.4-.4.5-1.1.3-1.3-.3-.1-.4-.3-.9-.4-1.3-.4-1.3-1.1-2.3-2.6-2.5.2-.1.4-.2.5-.3.4-.3.5-.7.2-1.1s-.8-.7-1.2-1.1c-.3-.2-.6-.4-.9-.7.6-.7 1.2-1.3 1.8-1.9.3-.3.6-.3.9.1.4.4.8.9 1.2 1.4-1.1.2-1.4.6-1 1.6.2.5.5.9.8 1.4.1.1.4.2.5.1.1 0 .2-.3.2-.5 0-.6.1-1.3.1-1.9 0-1.7-.6-2.7-2.3-3.2-.3-.1-.5-.2-.9 0-.1.1-.5 0-.7-.1-.5-.4-.8-.9-.8-1.6 0-.5.2-.7.7-.6h.2c0-.2 0-.4.1-.6.1-.7.5-1.1 1.1-1.2.5-.1 1-.1 1.4-.2.3 0 .6-.1.7-.5l.1-.1c.4-.4.5-.6.3-1.1s-.5-1-.8-1.5c-.1-.2-.2-.5-.3-.7-.1-.4-.1-.7.2-1 .2-.2.4-.3.7-.2.7.3 1.5.1 2.2-.2.5-.2 1-.5 1.4-.8.6-.4.4-.9-.2-1.1 0 0-.1-.1-.2-.1.6 0 1.2.1 1.8.1 1 0 1.3-.2 1.5-1.1 0 0 0-.1.1-.1 1.1.2 2.2.6 3.5.7-.4-.6-1.1-.8-1.6-1.2.5-.2.9-.4 1.3-.4 1.2-.2 2.4-.4 3.6-.7.2 0 .5-.2.7-.3l.6-.3c.6-.2 1.1 0 1.4.6.5.9.5 2 .4 3-.1 1.2-.3 2.5-.5 3.7.3-.1.6.2.6.5.1.6.2 1.2.2 1.8 0 1.3-.1 2.7-.2 4 .3-.1.4 0 .5.4.2.9.1 1.8-.2 2.7 0 .1-.1.3-.1.4h.1c.7-.2 1 .2.8.9-.1.3-.2.6-.4.9-.2-.1-.3-.2-.5-.4-.1.2-.3.3-.4.5-.2.7-.3 1.4-.4 2h.1c0-.1.1-.1.1-.2.1-.6.5-1 .9-1.5.1-.1.3-.2.5-.2.1 0 .2.3.2.4.2 1.1.4 2.3.7 3.4.4 1.6.9 3.2 1.3 4.8.1.2.1.4.1.6.1.3.2.6.4.8.4.5.4.6-.1.9-.6.3-.8.8-.8 1.4 1-.1 1.6.6 2 1.3.3.4.5 1 .7 1.4.1-.3.1-.7.2-1.2q.3.15.3.3c.5.6.9 1.3 1.6 1.7.1.1.2.2.2.3 1 1.5 2 3.1 3 4.6.4.6.9 1 1.4 1.5.3.3.6.6.8 1 .1.2.3.3 0 .5-.1 0 0 .3 0 .4.5.9 1.2 1.7 2 2.4 2 1.8 4.5 2.8 7 3.5.6.2 1 .4 1.4.9 1 1.2 2.1 2.1 3.6 2.6.9.3 1.8.3 2.7.1h.2c-.4.5-.4.8.3 1 1 .4 1.9.6 2.9.9.5.2 1.1.3 1.6.5.1 0 .2.2.3.3l-.3.3c-.4.2-.8.3-1.2.4-.7.2-1.4 0-2-.2-.9-.3-1.7-.6-2.6-.6-.4 0-.8-.3-1.3-.5-1.5-.6-2.9-1.4-4.5-1.7-1.3-.3-2.5-.2-3.7.5-.4.2-.7.4-1.1.6l-.1-.1c.4-.5.8-1 1.1-1.4 0 0 0-.1-.1-.1-.3.3-.7.5-1 .8s-.6.6-.9.8c-.5.3-.9.3-1.2-.2-.2-.3-.4-.6-.6-.8-.6-.8-1-1-2-.6-.1 0-.2.1-.3 0-.3-.2-.6-.4-1-.5-.6-.3-.6-.5 0-.9.1 0 .1-.1.3-.2h-.5c-.1 0-.3-.1-.4-.1.3-.5.6-.9 1-1.4-.9-.1-1.6-.1-2.4-.2-1.2-.1-2.4-.3-3.5-.8-.6-.3-.9-.8-1.1-1.4-.1-.3 0-.6.3-.5.8.1 1.6.3 2.4.4v.1c-.2.1-.4.1-.5.2s-.4.2-.4.4.2.4.3.5c.3.2.7.3 1 .4.9.2 1.9.3 2.8-.1-1.5-1.4-2.6-3.1-4.3-4.2-.9-.6-1.8-1.1-2.8-1.6-2.3-1.1-4.6-2.1-6.9-3.2-.5-.3-1-.6-1.6-1l-.3-.3v-.1c.2 0 .5 0 .7.1 1 .3 2 .8 2.9 1.4.5.3 1.1.4 1.7.5.5.1.8-.3.8-.8 0-.3-.1-.7-.3-1-.3-.6-.7-1.2-1.3-1.6-.3-.3-.7-.5-1.1-.5-.8 0-1.4-.5-1.9-.9.2-.6-.4-1.1-1-1.6m-7.3-17.2v.4c.2 1.6.7 3.1 1.5 4.4.1.1.1.2.2.3.4.5.5.5.9 0 .2-.3.4-.3.7-.1.2.1.3.3.5.4-.1-.2-.2-.5-.2-.7 0-.1.1-.4.2-.4.4-.2.4-.3.2-.7-.8-1.1-1.6-2.1-2.6-3-.1-.1-.3-.2-.4-.2 0 0-.1 0-.1.1.1.2.1.4.2.6.2.6.5 1.2.8 1.8.1.2.1.4.1.6h-.1c-.8-1.1-1.4-2.3-1.9-3.5m8.1.9c0-.1 0-.3-.1-.4l-.3-.9c0-.1-.1-.2-.2-.2s-.2.1-.2.2c-.1.1-.1.2-.1.4-.2.9-.2 1.8-.1 2.7.1.8.8 1.3 1.1 2.1.2.4.5.4.7-.1s.3-.9.4-1.4c-.4-.1-.5-.4-.5-.7s0-.6.1-.9c.1-.7-.1-.9-.8-.8m2.8-12.7H39c-.6.7-.4 1.7-1 2.5 0-.3-.1-.4-.1-.6.1-.6.2-1.1.3-1.6v-.9c0-.1-.1-.2-.2-.4-.1.1-.3.2-.4.3-.2.5-.5 1-.6 1.5-.1.7-.2 1.4-.2 2.1 0 .4.2.8.6.9s.6-.3.8-.7c.3-.8.5-1.6.7-2.3.2-.3.2-.6.2-.8m-16.4 8.6c.2.6.7.9.8 1.7-.6-.4-1.1-.7-1.7-1 0 0 0 .1-.1.1 0 .1 0 .1.1.2.6.7 1.2 1.4 1.9 2.1.5.5 1.1.2 1.2-.5.1-.8-.3-1.5-1.1-1.8-.3-.1-.5-.2-.7-.4-.1-.2-.3-.3-.4-.4m5.8.7c0-.1.1-.1.1-.2-.2-.2-.3-.4-.5-.5l-2.7-1.8c-.2-.1-.4-.1-.7-.2-.2-.1-.4.1-.3.3.3.6.6 1.3 1.3 1.5l1.8.6c.4.1.7.2 1 .3m.3-2.9.1-.1c-.3-.3-.6-.6-.8-.9.2-.1.3-.2.5-.4-.1-.1-.3-.3-.5-.4 0 0-.1 0-.1-.1-.7-.4-1.3-.8-1.7-1.5 0 0-.1-.1-.2-.1.1.2.1.3.2.4.1.4.4.9.3 1.3-.1.5.2.7.5 1 .3.2.7.4 1 .6.2.1.5.1.7.2m-5.9 1.2c.1.1.1.3.2.4l1.5 1.5c.3.3 1.1.3 1.4.1-.2-.6-2.3-2-3.1-2M50.4 77c.3-.6-1.3-2.8-1.8-2.9-.1.9 1.1 2.8 1.8 2.9M29.2 47.1c-.4-.8-3.2-1.8-3.8-1.5 1.2.5 2.5 1 3.8 1.5m13.3 17.6c.2-.7.2-1.4-.2-1.9-.1-.1-.3-.2-.4-.3 0 .2-.1.3-.1.5.1.5.3 1.1.7 1.7M28.1 54.5c.3-.5.2-.8 0-1.1 0-.1-.3-.2-.3-.2-.1.1-.3.4-.3.5.1.3.3.5.6.8m19 17.2c-.1-.5-.5-1-.9-1.1 0 .8.3 1.2.9 1.1m-18-28.5c0-.5-.2-.8-.4-.8-.2.1-.3.3-.4.4.2.2.4.4.6.5 0 .1.2-.1.2-.1m10 9.4c.5-.7.6-1.7.3-2.1zm-.3-2.4c-.3.4-.4 1.3-.1 1.6.1-.5.1-1 .1-1.6m-11.6.7.1-.1c-.2-.3-.5-.7-.7-1-.1.6.2 1 .6 1.1m-1.3 1.4c-.4.5-.3.8.2 1.1-.1-.4-.1-.7-.2-1.1m17.9 14.9c-.4.4-.4.8 0 1zM33.6 50.3h-.2c0 .4 0 .8.1 1.2h.2c0-.4-.1-.8-.1-1.2m-2.2 10.9c0 .3.1.5.2.7h.1v-.4c0-.2-.2-.3-.3-.3m4.9-15.5h-.1c.2.4.3.8.5 1.1 0 0 .1 0 .1-.1-.1-.3-.3-.6-.5-1m-10.9 4.6v.1c.1 0 .3.1.3.1.1-.1.1-.2.1-.3 0 0-.1 0-.1-.1 0 .1-.1.1-.3.2m15.3 7.8h.1v-.8h-.1zM18.5 38.4c.1-.3.2-.4.2-.5.1-.4 0-.6-.4-.5-.6.1-1.1.2-1.7.2-.3 0-.6.1-.9.1v.8c0 .4-.3.6-.7.6-1 .1-2.5-.9-2.9-1.8-.2-.5-.1-1 .4-1.3.2-.1.5-.2.8-.3-1.2-.6-2.4-.1-2.8.8-.4 1-.4 1.9-.3 2.9 0 .2.1.4.1.7-.1 0-.2-.1-.3-.1-.5-.7-.9-1.4-1.1-2.2-.2-1.1.2-2 1.2-2.6 1-.7 2-1 3.2-1.2.4-.1.8-.1 1.1-.2v.1c-.3 1.1 0 1.7 1 2.2.6.2 1.2.4 1.8.5.3 0 .7-.2 1-.3.2-.1.1-.3-.1-.4-.2-.2-.5-.3-.8-.5-.1-.1-.3-.2-.3-.4 0-.1.2-.2.3-.3s.3-.1.5-.2c-.4-.2-.7-.3-1-.5-.2-.1-.4-.3-.6-.5.2-.1.5-.4.7-.4 4-.6 7.8-2.1 11.6-3.1 4-1 8.1-1.6 12.3-1.4.6 0 .8.2.9.8.1.7-.1 1.3-.5 1.8-.8 1.1-1.9 1.8-3.3 2-.7.1-1.5.4-2.2.6-2 .5-4 .8-6 1.1-.9.1-1.9.1-2.8.2-1.3.1-2.5.8-3.7 1.3-1.1.5-2.3 1.1-3.5 1.6-.1.2-.6.2-1.2.4m1.6-3.2c.6 0 1.1.2 1.6.5.3.2.5.3.8.4.1.1.3 0 .5 0v-.4c-.3-.7-.8-1.2-1.4-1.5-.6-.2-1-.1-1.3.5-.1.2-.2.3-.2.5m14.7-4.1c.6 0 .8-.3.8-.7-.1-.5-.4-.9-.8-1.2-.4-.2-.8-.1-.9.3s-.1.8-.1 1.1c0 .1.1.2.1.2.3.2.7.3.9.3M25 32.3c.2 0 .5 0 .7-.1.3-.1.6-.3.9-.3.4-.1.8-.1 1.1 0 .4.2.7.2 1 .1l.9-.3c.1 0 .2-.1.3-.2-.8-.8-4.1-.2-4.9.8m-2 1.9c.2 0 .5 0 .7-.1.1 0 .2-.3.2-.4-.2-.4-1.2-.8-1.6-.6-.2.1-.4.3-.2.5.2.3.5.7.9.6m13.3-3.1h.2c0-.1.1-.3.1-.4 0-.3.1-.4.4-.4l.9-.3c.1 0 .1-.2.2-.3-.1-.1-.2-.1-.3-.2h-.3q-.9.3-1.2 1.2c-.1.1 0 .3 0 .4m-15.3 2c-.2.1-.5.2-.7.4.4.2.7.1.7-.4m3.8-.7c-.5.1-.5.2-.2.5.1-.2.1-.4.2-.5M37.9 87.9c.7.4 1.5.8 2.2 1.1 1.5.7 3 1.3 4.5 2 .1 0 .2.1.3.1 0 0 .1 0 .1-.1-.3-.2-.6-.4-1-.5-1.7-.7-3.4-1.6-4.9-2.6-.2-.1-.3-.2-.4-.4h.3c.6.2 1.2.4 1.8.7 2.6 1.5 5.4 2.6 8.2 3.7 1.3.5 2.6 1.1 3.9 1.5.6.2 1.3.3 1.9.4 1.6.2 3.3.5 4.9.6 1.5.2 3 .1 4.6-.1h.4c1.1.5 2.4.6 3.6.5 1 0 2-.1 3.1-.1.8 0 1.6.1 2.4.5-.6.1-1.1.2-1.7.3-3.2.4-6.5.3-9.7-.1-3.5-.4-6.9-.9-10.4-1.5-2-.3-4-1-5.9-1.8-2.6-1.1-5.3-2.1-7.6-3.7-.2-.1-.4-.3-.6-.4zM30.5 79.7c-.4.5-.4.6 0 1l1.2 1.2c.3.4.6.6 1.1.7 1.1.3 1.9 1 2.5 1.9.1.1.1.4.1.6-.2 0-.4.1-.6.1-1.1-.2-2.2-.6-3-1.4q-1.5-1.65-3.3-3c-1.9-1.5-3.3-3.4-4.4-5.4-1.4-2.5-3.1-4.9-4.7-7.2-1.6-2.4-3-4.9-4-7.6-.1-.2-.1-.4-.2-.6v-.2l.3.3c.8 1 1.4 2.2 1.9 3.4.4 1.3 1.1 2.3 2 3.3.6.7 1.2 1.4 1.7 2.1.3.5.5 1 .8 1.5.1.1.2.3.3.3 1.1.7 1.7 1.6 2.1 2.8.2.6.4 1.1.6 1.7q.45 1.05 1.5 1.5c.1 0 .2.1.2.1.5-.1.7.2.9.5l.9 1.5c.4.6 1.1 1.1 2.1.9" class="st0"/><path d="M32.4 69.4h-1.3s0 .1-.1.1c.6.4 1.2.8 1.7 1.2-.3.3-.1.6.1.8s.5.4.7.6c.4.4.5.6.2 1.2.4.4.8.7 1.2 1.1 0 0 0 .1-.1.1-.2-.1-.4-.1-.5-.2-.6-.3-1.2-.6-1.7-.9-1-.5-1.9-1-2.9-1.6-.4-.2-.8-.4-1.1-.7-.2-.1-.2-.3-.4-.5l.1-.1c.6.3 1.2.5 1.8.8l.1-.1c-.8-.7-1.6-1.3-2.5-2h.9c-.3-.7-1.1-1-1.4-1.7.4 0 .7.1 1.1.1-.1-.3-.1-.5-.2-.9.5.2.9.3 1.3.4l-.5-.5c.1.1.1 0 .1-.1.1 0 .2-.1.3-.1.4.1.8.1 1.1.2.7.2 1.5.4 2.2.6.1 0 .2.1.3.1-.2.2-.4.3-.6.4s-.5.2-.7.3c-.4.2-.4.4-.1.6.4.3.7.5.9.8q0-.15 0 0M25.8 28.9c-1.4-1.2-3.1-1-4.7-.7-1.1.2-2.2.6-3.3.9-.2 0-.4 0-.6.1v-.1c.2-.1.3-.2.5-.2 1.7-.5 3.3-.9 5-1.4 2.2-.6 4.4-1.2 6.6-1.7.3-.1.5-.1.8 0 .3 0 .4.2.3.5-.1.2-.3.5-.4.7.4.5.7 1 1.1 1.5l-.1.1c-.6-.2-1-.7-1.5-1.2.2.6.2 1.2 0 1.7-.3.8-.9 1-1.6.4-.3-.2-.5-.6-.7-.9-.3-.3-.5-.7-.8-.9-.3-.3-.6-.1-.6.3-.2.2-.1.6 0 .9M26.8 59.1c.5-.2.8-.1 1 .3.2.6.3 1.3.5 1.9.1.4.2.8.4 1.2.1.2.3.5.4.6.7.4 1 1.1 1.4 1.8.1.1.1.3 0 .4s-.3.1-.4 0l-.9-.3c-.5-.2-1-.5-1.5-.7-1.1-.5-2.1-1-3.2-1.5-.2-.1-.4-.2-.7-.3 0 0 .1 0 .1-.1s0-.3-.1-.4c-.2-.4-.5-.8-.6-1.2-.2-.4 0-.6.5-.6.4.1.8.2 1.1.3.6.2 1.2.5 1.8.7.1.1.3.1.4.1.4 0 .6-.2.5-.6s-.3-.8-.4-1.1c-.1-.1-.2-.3-.3-.5M35.9 78.7c-.9-.1-1.7-.1-2.4-.6-.1-.1-.2-.1-.3-.1-.7-.1-1.1-.6-1.5-1.1-.3-.4-.1-.7.3-.7.8 0 1.6.1 2.3.3 1 .3 2 .7 3 1 .2.1.4.3.6.5-.2.2-.4.4-.6.4-.4.2-.9.3-1.4.3M23.2 22.2c1.5.7 3.1.6 4.1 2 0 0 0 .1-.1.1-.2-.1-.4-.2-.6-.2q-.45-.15-.3.3c.1.3.2.6.2.8 0 .4-.1.6-.5.6-.4.1-.8-.1-1.2-.3-.9-.6-1.5-1.4-1.7-2.5 0-.2.1-.4.1-.8M85.9 90c-.2.4-.4.5-.8.6-.5.1-1 .2-1.5.1-1 0-2-.2-3-.2h-1.9c-.5 0-.9 0-1.4-.1 0-.4.2-.6.5-.8.6-.4 1.3-.4 2-.3 1.6.2 3.2.4 4.8.5.5.1.9.2 1.3.2M14.7 54.7c.1.2.1.4.2.5.7.9 1.2 2 1.5 3.1s.8 2.1 1.4 3c0 .1.1.1.1.3-.9-.6-1.5-1.3-1.9-2.2-.5-1-.9-2-1.4-3-.4-1-.9-1.9-1.4-2.9-.2-.6-.4-1.1-.6-1.7v-.3s.1 0 .1-.1c.2.2.4.3.5.5.4.6.7 1.3 1.1 1.9.1.1.2.3.3.4 0 .3.1.4.1.5M18 16.6c-.5-.2-.7-.7-.7-1.2 0-.7.4-1.3 1.1-1.7.6-.3 1.2-.2 1.6.2.3.3.5.7.7 1.1.1.3-.2.4-.4.4h-2.2c-.4 0-.5.2-.4.6 0 .1.1.2.1.3.1.1.1.2.2.3M64.1 89.9c0 .4-.6 1.2-1 1.2-.1 0-.2-.1-.3-.1-.1-.1-.1-.3-.1-.4-.1-.3-.2-.3-.5-.1-.2.1-.4.3-.6.4-.1.1-.3.1-.3 0-.1-.1-.1-.3-.1-.4.1-.2.2-.5.3-.6.5-.4 1-.8 1.5-1.1.6-.3.9-.2 1 .5.1.2.1.4.1.6M56.4 93.1c-1.1.5-6.2-.9-7.2-1.9.7.1 1.3.3 1.9.4 1.2.3 2.5.5 3.7.8.6.1 1.1.3 1.6.7M20.4 42.2c-.8-.3-1.5-.6-2.3-.9v-.1c.1 0 .2-.1.3 0 .7 0 1.4.1 2.1.1.2 0 .5.1.7.2.3.2.4.5.2.8-.4.7-1.7 1-2.4.5-.1-.1-.1-.2-.2-.4.1 0 .3-.1.4-.1.4 0 .8.1 1.1.1.1-.1.1-.1.1-.2" class="st0"/><path d="M14.7 54.7c0-.1-.1-.2-.1-.4-.3-1.2-.9-2.3-1.1-3.6 0 0 .1 0 .1-.1l.3.3c.8 1.2 1.4 2.5 1.7 4 0 .1 0 .3.1.4v.3c-.6 0-.7-.5-1-.9M37.9 76.7c.6 0 1 .3 1.5.5.1 0 .2.1.3.2.6.4 1.2.8 1.9.9.2 0 .4.3.6.4-.2.1-.5.2-.7.2-.6-.1-1.3-.2-1.9-.5-.7-.4-1.3-1-1.9-1.5.1-.1.2-.1.2-.2M23.6 25.3c-.4 0-.8-.1-1.1-.1h-2.3c-.2 0-.4.2-.7.2-.3.1-.6.1-.9.2 0-.1 0-.1-.1-.2l.6-.3c.9-.3 1.9-.6 2.8-.9.7 0 1.3.4 1.7 1.1M40.3 76.8c.8-.1 1.7 0 2.4.4.2.1.5.3.8.3.3.1.7.2 1.1.2.1 0 .3.1.4.2-.8.2-1.6.1-2.4-.1s-1.5-.6-2.2-.9c-.1 0-.1 0-.1-.1M98.6 90.1c-1.6.3-3.1.7-4.7.3v-.2c1.5-.3 3.1-.4 4.7-.1M46.9 31.3q.9.15 1.5.6c.3.3.4.7.3 1-.1.2-.3.3-.4.1-.3-.5-.8-.7-1.3-1-.1-.1-.2-.1-.3-.2s-.1-.2-.2-.3c.2-.1.3-.1.4-.2M43.5 82.9c-1 .1-2.6-.6-2.9-1.3.5-.2 2.5.7 2.9 1.3M64.5 90.5c0-.1.1-.2.2-.3.4-.4.9-.6 1.4-.7.1 0 .2 0 .3.1 0 .1 0 .2-.1.3-.5.4-.9.8-1.4 1.1-.1.1-.4-.2-.4-.5M16.2 42.3l.6.3c-.1.2-.2.5-.4.6-.3.3-1.1 0-1.1-.4 0-.1.1-.3.2-.3.2-.1.4-.2.7-.2M22.4 20.6c0-.4.1-.5.4-.6.5-.2 1.1-.2 1.5.2-.5.4-1.1.5-1.9.4M16.7 48.8c-.4-.1-.8-.2-1.1-.4-.1-.1-.3-.3-.3-.4s.2-.3.4-.3c.6-.1 1 .3 1 1.1M43.2 80.3c-.8.3-2.2-.3-2.4-.9q1.2.15 2.4.9M15.2 46.3c.4-.2 1.5 0 1.7.3.1.1.1.2.1.3-.1.1-.3.2-.4.3-.3 0-1.2-.6-1.4-.9M38.4 76.1c-.8-.2-1.8-.2-2.4-1 .4-.2 1.9.4 2.4 1M13.3 49c-.4-.1-.8-.3-.9-.8 0-.2.1-.4.2-.6.2.1.4.1.5.3.2.3.3.7.4 1-.1.1-.1.1-.2.1M71.8 91.5c-.4.6-.9.9-1.4 1.3h-.1c0-.2 0-.4.1-.5.3-.5.8-.8 1.4-.8M66.3 90.8c0 .6-.6 1.1-1.1 1-.2 0-.3-.1-.2-.3.1-.3.9-.7 1.3-.7M35.1 66.8c-.4-.2-.7-.3-1.1-.5-.1 0-.2-.2-.1-.2 0-.1.1-.2.2-.2.4-.1 1 .2 1 .9M51.6 85.7c-.4.5-1.1.7-1.5.2.3-.3 1.1-.4 1.5-.2M44.8 85.2c.3-.2.9-.3 1.1 0 .1.1.1.3.2.6-.6-.1-1.1-.3-1.3-.6M67.2 91.5c0-.6.4-1 .9-1 .1 0 .2 0 .2.1v.2c-.3.3-.6.6-1.1.7M19.5 56.5c.5-.2 1-.2 1.4-.1-.3.6-.9.6-1.4.1M25.1 67.5c.7 0 1.2.5 1.6 1 0 0 0 .1-.1.1-.5-.3-1.1-.6-1.6-.9.1-.1.1-.2.1-.2M69.1 91.5c-.3.3-.5.6-.8.8 0 0-.2 0-.3-.1q-.15-.15 0-.3c.1-.2.6-.5 1.1-.4M22.9 65.8c.6 0 1.1.4 1.3 1.1-.5-.3-1-.5-1.3-1.1M39.5 84.5c-.2.5-.6.6-1.2.4.1-.3.7-.5 1.2-.4M32.8 75.1c-.6.3-1.1-.1-1.5-.3v-.1l1.5.3zM47.4 90.9l-.9-.3c.3-.3.7-.4.9-.2.1.1.1.3.1.4zM42.9 88.5l-.5-.5c.1-.1.2-.2.3-.2.2 0 .4.1.6.1 0 .2-.1.4-.1.6-.1-.1-.2 0-.3 0M11.5 39.5c.2-.1.4-.2.5-.2h.5c0 .1-.1.2-.1.3-.1.2-.3.3-.5.2-.1-.1-.1-.2-.4-.3M38.9 82.2c.3 0 .6 0 .8.1.1 0 .1.1.2.2-.1.1-.2.2-.3.2-.3-.1-.5-.2-.8-.3.1-.1.1-.2.1-.2M42.6 84.5c.4 0 .8.1 1.3.1-.4.4-.8.4-1.3 0zM34.7 75.8c-.4.2-.9 0-1.3-.5.4.1.9.2 1.3.4zM15.2 49.1c.5-.1 1 .1 1 .6-.4-.2-.7-.4-1.1-.5 0 0 .1 0 .1-.1M69.2 91.9c.4-.2.8-.5 1.3-.8-.2.6-.6.8-1.2.9 0 0 0-.1-.1-.1M55.2 79c-.2 0-.4-.1-.6-.2 0 0 0-.3.1-.4s.3-.2.3-.1c.1.2.2.3.3.5 0 .2 0 .2-.1.2M80.3 85.8c.1.1.2.2.2.3-.1.1-.2.3-.4.4-.1 0-.3-.2-.4-.3.2-.1.4-.3.6-.4M17.4 43.6c.2 0 .5-.1.7 0 .1 0 .2.2.2.2 0 .1-.2.2-.2.2-.2 0-.5-.1-.7-.2zM23 68.8c.5.2.8.6 1 1.1-.4-.3-.8-.7-1.1-1zM17.1 44.8c-.3-.1-.5-.2-.7-.3.1-.1.3-.4.4-.4.4 0 .3.3.3.7M74.7 95.2c.3-.2.6-.3.9-.2 0 .5-.4.6-.9.2M44 82.2c-.3-.1-.5-.2-.8-.3v-.2c.2 0 .4-.1.6 0 .1 0 .2.2.3.3 0 .1 0 .1-.1.2M51 87.2c-.7 0-1.3-.1-2-.1v-.2c.7.1 1.3.1 2 .2zM60.5 89.6c.4-.2.7-.5 1.1-.7 0 .1.1.1.1.2-.4.2-.7.5-1.1.7 0-.1-.1-.1-.1-.2M25.3 57.2c-.3 0-.5-.1-.5-.4 0-.1.1-.2.2-.3.1.1.2.1.2.2.1.2 0 .3.1.5M88.1 90.1c-.2.1-.3.3-.4.3 0 0-.2-.1-.2-.2l.4-.4c0 .1.1.2.2.3M56.3 91.4c.2-.3.3-.5.5-.8.3.6.2.7-.5.8M57.2 80.7c-.3-.1-.5-.1-.7-.2-.1 0-.1-.1-.1-.2s.1-.1.2-.2q.45.15.6.6M92.4 89.6c0 .2.2.4-.1.5H92c.1-.2.2-.4.2-.5s.1-.1.2 0M22.9 63.3c.2 0 .4 0 .6-.1v.3h-.6zM84.3 83.8v.7c-.2-.1-.3-.2-.3-.2 0-.2.1-.3.2-.5zM35.2 80c-.3-.1-.6-.2-.9-.4 0-.1 0-.1.1-.2.3.1.6.2 1 .4-.2.1-.2.2-.2.2M19.7 54.6c-.2 0-.5 0-.7.1v-.2c.2 0 .5-.1.7-.1zM23.5 38.6c-.1.1-.1.2-.2.4-.1-.1-.2-.1-.3-.2v-.1c.1-.1.3-.2.5-.1-.1-.1 0-.1 0 0M40.1 74.2c-.1-.1-.3-.2-.4-.3 0 0 0-.1.1-.2.1.1.3.2.4.3 0 .1-.1.1-.1.2M38.3 73.1c-.1-.1-.3-.2-.4-.2l.2-.2c.1.1.2.2.3.2 0 .1 0 .2-.1.2M40.3 87c.1.1.1.2.2.4H40c.1-.1.1-.3.2-.4z" class="st0"/><path d="M28.2 51.1c.5 1.2 1.1 2.4 1.9 3.5h.1c0-.2-.1-.4-.1-.6-.2-.6-.5-1.2-.8-1.8-.1-.2-.1-.4-.2-.6 0 0 .1 0 .1-.1.1.1.3.1.4.2 1 .9 1.9 1.9 2.6 3 .3.4.2.5-.2.7-.1.1-.2.3-.2.4 0 .2.1.5.2.7-.2-.2-.3-.3-.5-.4-.3-.2-.5-.2-.7.1-.4.5-.5.5-.9 0-.1-.1-.1-.2-.2-.3-.8-1.4-1.3-2.8-1.5-4.4zM36.3 52c.7-.1.9.1.8.8 0 .3-.1.6-.1.9s.1.6.5.7c-.1.5-.2 1-.4 1.4s-.5.4-.7.1c-.3-.7-1-1.2-1.1-2.1s-.2-1.8.1-2.7c0-.1.1-.3.1-.4s.1-.2.2-.2.2.1.2.2l.3.9c.1.1.1.3.1.4M39.1 39.3c0 .2 0 .5-.1.7-.2.8-.5 1.6-.7 2.3-.1.3-.3.7-.8.7-.5-.1-.6-.5-.6-.9 0-.7 0-1.4.2-2.1q.15-.75.6-1.5c.1-.1.2-.2.4-.3.1.1.2.2.2.4v.9c-.1.6-.2 1.1-.3 1.6 0 .1 0 .3.1.6.7-.8.4-1.8 1-2.5-.1.1-.1.1 0 .1M22.7 47.9c.2.1.3.3.5.4s.5.3.7.4c.8.3 1.2 1 1.1 1.8-.1.7-.7 1-1.2.5-.7-.7-1.3-1.4-1.9-2.1 0 0-.1-.1-.1-.2 0 0 0-.1.1-.1.5.3 1 .6 1.7 1-.2-.8-.8-1.2-.9-1.7M28.5 48.6l-.9-.3-1.8-.6c-.8-.2-1-.9-1.3-1.5q-.15-.3.3-.3c.2.1.5.1.7.2l2.7 1.8c.2.1.3.4.5.5-.1.1-.2.1-.2.2M28.8 45.7l-.6-.3c-.3-.2-.7-.4-1-.6s-.6-.4-.5-1c.1-.4-.2-.8-.3-1.3 0-.1-.1-.2-.2-.4.1.1.1.1.2.1.4.7 1 1.2 1.7 1.5 0 0 .1 0 .1.1.2.1.3.3.5.4-.2.1-.3.2-.5.4.3.3.6.6.8.9-.2.1-.2.2-.2.2M22.9 46.9c.7 0 2.9 1.4 3.1 2-.3.2-1.1.1-1.4-.1l-1.5-1.5c0-.1-.1-.2-.2-.4M50.4 77c-.8-.2-1.9-2-1.8-2.9.6.1 2.1 2.3 1.8 2.9M29.2 47.1c-1.3-.5-2.5-1-3.8-1.5.6-.3 3.3.7 3.8 1.5M42.5 64.7c-.4-.6-.6-1.2-.7-1.8 0-.1.1-.3.1-.5.1.1.3.2.4.3.4.6.4 1.2.2 2M28.1 54.5c-.2-.3-.5-.6-.6-.8 0-.1.1-.3.3-.5 0 0 .3.1.3.2.1.4.3.7 0 1.1M47.1 71.7c-.5.1-.9-.4-.9-1.1.4.1.8.6.9 1.1M29.1 43.2l-.2.2c-.2-.2-.4-.4-.6-.5l.4-.4c.2-.2.4.2.4.7M39.1 52.6l.3-2.1c.3.4.2 1.4-.3 2.1M38.8 50.2c0 .6-.1 1.1-.1 1.6-.3-.3-.2-1.2.1-1.6M27.2 50.9c-.4-.1-.7-.5-.6-1.1.2.3.5.7.7 1 0 .1-.1.1-.1.1M25.9 52.3c.1.4.1.7.2 1.1-.5-.3-.5-.6-.2-1.1M43.8 67.2v1c-.4-.2-.5-.6 0-1M33.6 50.3c0 .4.1.8.1 1.2h-.2c0-.4 0-.8-.1-1.2zM31.4 61.2c.1.1.3.1.3.2.1.1 0 .3 0 .4h-.1c-.1-.2-.2-.4-.2-.6M36.3 45.7c.2.4.4.7.5 1.1 0 0-.1 0-.1.1-.2-.4-.3-.8-.5-1.1 0-.1.1-.1.1-.1M25.4 50.3c.1-.1.2-.1.4-.2 0 0 .1 0 .1.1s-.1.3-.1.3c-.1 0-.2 0-.3-.1-.1 0-.1-.1-.1-.1M40.7 58.1v-.8h.1v.8zM20.1 35.2c.1-.2.1-.3.2-.4.3-.6.7-.7 1.3-.5.7.3 1.1.8 1.4 1.5.1.1 0 .3 0 .4h-.5c-.3-.1-.6-.3-.8-.4-.5-.4-1-.6-1.6-.6M34.8 31.1c-.2-.1-.6-.1-.9-.2-.1 0-.2-.1-.1-.2 0-.4 0-.8.1-1.1.1-.4.5-.6.9-.3s.8.7.8 1.2c.1.4-.2.6-.8.6M25 32.3c.7-1 4-1.6 4.9-.9-.1.1-.2.2-.3.2l-.9.3c-.3.1-.6.1-1-.1-.3-.1-.7-.1-1.1 0l-.9.3c-.2.1-.4.1-.7.2M23 34.2c-.5.1-.7-.3-1-.6-.2-.2 0-.4.2-.5.4-.2 1.4.2 1.6.6 0 .1-.1.3-.2.4-.1 0-.3 0-.6.1M36.3 31.1c0-.1-.1-.3-.1-.4q.3-.9 1.2-1.2c.1 0 .2-.1.3 0 .1 0 .2.1.3.2-.1.1-.1.2-.2.3-.3.1-.6.3-.9.3-.3.1-.4.2-.4.4 0 .1-.1.2-.1.4zM21 33.1c0 .5-.3.6-.7.4.2-.1.4-.2.7-.4M24.8 32.4c-.1.2-.1.3-.2.5-.3-.3-.3-.4.2-.5"/></g></svg>