<svg xmlns="http://www.w3.org/2000/svg" width="480" height="480" viewBox="0 0 48 48"><path fill="#455a64" d="M40.3 15.7c.6-1.7 1.2-5-.4-8.7-4.5 0-8.3 3.2-8.9 3.8-2.2-.5-4.6-.7-7-.7-2.5 0-4.9.3-7.2.8C13.7 7.7 9.6 7 8 7c0 0-.9 1.8-.9 5 0 2 .5 3.2.8 3.8C5.5 18.3 4 21.7 4 26.1c0 11.2 7.1 15 20 15s20-3.8 20-15c0-4.6-1.4-8-3.7-10.4"/><path fill="#ffccbc" d="M24 39c-8.2 0-15-1.4-15-9 0-2.9 1.6-4.5 2.7-5.5 2.5-2.2 6.7-1.2 12.3-1.2 4.1 0 7.6-.7 10.4.2S39 27 39 29.8c0 7.9-4 9.2-15 9.2"/><path fill="#d84315" d="M25 34c0 .6-.4 1-1 1s-1-.4-1-1 .4-1 1-1 1 .4 1 1m1.5 2.5c.2-.2.2-.5 0-.7s-.5-.2-.7 0c-.9.9-2.6.9-3.5 0-.2-.2-.5-.2-.7 0s-.2.5 0 .7c.7.7 1.5 1 2.5 1s1.7-.4 2.4-1"/><path fill="#fff" d="M19 29.5c0 2.5-1.3 4.5-3 4.5s-3-2-3-4.5 1.3-4.5 3-4.5 3 2 3 4.5M32 25c-1.7 0-3 2-3 4.5s1.3 4.5 3 4.5 3-2 3-4.5-1.3-4.5-3-4.5"/><path fill="#6d4c41" d="M34 30c0 1.7-.9 3-2 3s-2-1.3-2-3c0-.2 0-.5.1-.7.1.4.5.7.9.7.6 0 1-.4 1-1s-.4-1-1-1c-.2 0-.4.1-.6.2.4-.7.9-1.2 1.6-1.2 1.1 0 2 1.3 2 3m-18-3c-.7 0-1.2.5-1.6 1.2.2-.1.4-.2.6-.2.6 0 1 .4 1 1s-.4 1-1 1c-.4 0-.8-.3-.9-.7 0 .2-.1.5-.1.7 0 1.7.9 3 2 3s2-1.3 2-3-.9-3-2-3"/></svg>