<svg xmlns="http://www.w3.org/2000/svg" xml:space="preserve" id="Layer_1" x="0" y="0" viewBox="0 0 107.6 114"><style>.st0{fill:#212121}.st1{fill:#216ba7}</style><g id="hZrN6H.tif"><path d="M10.7 102c-.1-.1-.3-.2-.2-.5.2-.9.5-1.9.7-2.8.1-.3.2-.4.5-.4.4 0 .7-.1 1.1-.1.5 0 .8-.2 1-.6.9-1.7 1.3-3.5 1.7-5.3.4-1.9.6-3.8 1.3-5.7.1-.4.3-.5.7-.5h3.2c.3 0 .4 0 .3.4-.9 4-1.7 8-2.8 11.9-.2.6-.4 1.1-.7 1.7-.6 1.2-1.6 1.8-3 2-.1 0-.2 0-.2.1-1.2-.2-2.4-.2-3.6-.2" class="st0"/><path d="M82.9 55c-1.5 3.1-3.6 5.8-6.2 8.1-4.1 3.6-8.8 5.8-14.1 6.7-3.4.6-6.8.5-10.2.1-7.9-1-14.4-4.6-19.9-10.2-5-5.1-8.2-11.2-9.3-18.4-.9-6 0-11.6 3.3-16.7.8-1.2 1.7-2.3 2.6-3.4q.15-.3.6-.3c-.2 1-.4 2.1-.6 3.1-1 6.6-.6 12.9 2.3 19 1.9 4 4.7 7.4 8.1 10.3 3.8 3.2 7.9 5.9 12.6 7.5 8 2.7 16 2.5 23.7-1 2.4-1.1 4.5-2.6 6.4-4.4.3-.2.5-.3.7-.4" class="st1"/><path d="M84.7 38.9c.1.2-.1.4-.2.6C82 45 77.7 48.4 72 49.9c-8.7 2.3-16.5.4-23.2-5.7-3.3-3-5.8-6.5-6.9-10.9-1.2-4.3-1.2-8.6.5-12.8.7-1.8 2.3-4.1 3.4-5.1-.1.9-.3 1.8-.4 2.7-.7 5.7.1 11.2 3.4 16.1 2.3 3.4 5.5 5.9 9 7.9 2.9 1.7 6 2.9 9.4 3.3 6.4.7 11.9-1 16.5-5.5z" class="st1"/><path d="M39.9 92.4c-.3 1.2-.6 2.3-.8 3.4-.1.2-.3.2-.5.2H36c-2.9 0-5.9.1-8.8-.1-2.6-.2-4.5-2.1-4.8-4.7-.4-3.6.4-6.9 2.6-9.9 2-2.9 4.9-4 8.4-3.8 2.2.1 4.1.9 5.4 2.7 1.4 1.8 1.6 3.9 1.1 6-.5 1.9-1.1 3.8-1.8 5.6-.2.5-.1.6.4.6zm-8.5-.1h2.1c.2 0 .3-.1.4-.3.6-2.3 1.4-4.6 1.8-7 .3-1.4-.4-2.8-1.7-3.3-1.8-.8-4.9-.4-5.9 2.2-.7 1.8-1.1 3.6-1.3 5.4-.1 1.4.6 2.5 2 2.8 1 .3 1.8.2 2.6.2M64.7 90.1h-4.2c-.4 0-.6.1-.6.5-.2.9.2 1.5 1.1 1.7s1.8.2 2.6.2h4.5c.4 0 .5.1.4.4l-.6 2.7c0 .2-.1.3-.4.3-2.9 0-5.8.3-8.7-.1-2-.3-3.3-1.7-3.2-3.7.1-2.5.7-5 1.8-7.3.4-.8 1-1.5 1.8-2 2.5-1.7 5.2-2.2 8.1-1.2 1.9.7 2.9 2.2 2.7 4.3-.1 1.3-.4 2.6-.6 3.9-.1.3-.2.4-.5.4-1.4-.1-2.8-.1-4.2-.1m-4-3.1h4.9c.2 0 .3 0 .4-.3.1-.8-.2-1.5-.9-1.7-1.6-.6-3.7-.4-4.4 2M55.9 81.6c-1 4.7-2 9.4-2.9 14-.1.3-.1.4-.5.4h-7.3c-2.5 0-3.8-1.4-3.8-3.9.1-1.8.5-3.6.8-5.4.3-1.5.6-3.1 1-4.6.1-.3.2-.4.5-.4h2.9c.3 0 .4.1.4.4-.1 1.8-.6 3.6-1 5.4-.3 1.5-.5 3-.3 4.6 0 .3.1.5.5.4h3.3c.3 0 .4-.1.5-.4.7-3.3 1.4-6.5 2.1-9.8.1-.5.3-.6.8-.6.9-.1 1.9-.1 3-.1" class="st0"/><path d="M59.1 12c-.1 1.1-.3 2.1-.2 3.2.1 4.4 1.9 8 5.1 10.8 2.1 1.8 4.4 3.2 7.1 3.9 3.5 1 6.9.5 10.2-1.1.1-.1.3-.1.5-.2-.5.9-1.1 1.6-1.7 2.2-2 1.9-4.4 2.8-7.1 2.9-3.4.1-6.6-.5-9.5-2.3-3.8-2.5-6.2-6.1-7.1-10.5-.6-3.2.4-6 2.3-8.6l.1-.1c.2-.2.2-.2.3-.2" class="st1"/><path d="M86.2 88.3c1.9-2.8 3.8-5.4 5.5-8.1.4-.7.9-.9 1.7-.9 1.2.1 2.4 0 3.7 0-.4.8-.8 1.4-1.2 2-1.5 2.2-3.3 4.3-4.9 6.4-1.9 2.4-3.5 4.9-4.5 7.9-.1.2-.2.3-.4.3h-3.9c0-.1-.1-.1 0-.1 1-1.8.8-3.7.3-5.6-.3-1.2-.7-2.4-1-3.6-.1-.5 0-.6.5-.6h3.3c.3 0 .4.1.5.4 0 .6.2 1.2.4 1.9" class="st0"/><path d="M78.5 81.5c1 .1 2.6-.1 4.2.1 1.4.1 1.9.7 2.2 2 .3 1.5.3 1.5-1.1 1.5h-6.9c-.4 0-.6.1-.6.5-.7 3.2-1.4 6.5-2 9.7-.1.5-.3.7-.9.7-.9-.1-1.9 0-2.8 0-.3 0-.4-.1-.3-.4 1-4.6 2-9.2 2.9-13.8.1-.3.2-.4.5-.4 1.4.1 2.8.1 4.8.1M17 84.8c.2-1 .5-2 .7-3 .1-.2.2-.3.4-.3h3.4c.4 0 .4.1.3.4-.2.9-.4 1.7-.6 2.6 0 .2 0 .3-.3.3z" class="st0"/><path d="M82.8 54.9s.1 0 0 0c.1 0 .1.1 0 0q.15.15 0 0" class="st1"/></g></svg>