<svg xmlns="http://www.w3.org/2000/svg" width="180" height="180" stroke="gray"><g fill="#fff" stroke-width="2"><circle cx="90" cy="90" r="88"/><circle cx="90" cy="90" r="66"/><circle cx="90" cy="90" r="44"/><circle cx="90" cy="90" r="22"/><path d="M90 2v176m62-26L28 28m124 0L28 152m150-62H2"/></g><g opacity=".8"><path fill="#44c" d="M90 90h18a18 18 0 0 0 0-5z"/><path fill="#bc3" d="m90 90 34-43a55 55 0 0 0-15-8z"/><path fill="#d93" d="M90 90 74 18a74 74 0 0 0-31 15z"/><path fill="#db3" d="M90 90 32 62a65 65 0 0 0-5 39z"/><path fill="#3bb" d="m90 90-33 16a37 37 0 0 0 2 5z"/><path fill="#3c9" d="m90 90-10 45a46 46 0 0 0 18 0z"/><path fill="#d73" d="m90 90 46 58a74 74 0 0 0 12-12z"/></g></svg>