<svg xmlns="http://www.w3.org/2000/svg" xml:space="preserve" id="Layer_1" x="0" y="0" viewBox="0 0 200 200"><style>.st0{fill:#9cbc45}.st1{fill:#46473d}</style><g id="Qk7KAA.tif"><path d="M185.5 100v44.8c0 3.3-1.4 5.6-4.2 7.2-12.7 7.4-25.4 14.7-38.1 22-12.8 7.4-25.6 14.7-38.3 22.1-3.3 1.9-6.4 2.1-9.8.1-18.7-10.9-37.5-21.7-56.3-32.6-6.7-3.9-13.4-7.7-20.1-11.5-3-1.7-4.4-4.1-4.4-7.6.1-29.6.1-59.2 0-88.9 0-3.6 1.5-6 4.5-7.7C32.7 40 46.4 32 60.2 24.1c11.7-6.7 23.4-13.4 35-20.2 3.4-2 6.4-1.9 9.8 0C129.3 18 153.7 32 178.1 46.1c1.8 1 3.7 1.9 5.3 3.4 1.5 1.4 2.2 3.2 2.2 5.3-.1 15.1-.1 30.1-.1 45.2m-50-5.6V75.7c0-1.1-.3-1.8-1.4-2.6-2.1-1.5-4.6-1.9-6.5-3.7-.4-.4-1-1-1.8-.6-.7.4-.5 1.2-.5 1.8V88c0 .8.5 2-.4 2.5-.9.6-1.5-.6-2.3-1-1.1-.5-2.2-1.7-3.4-.6-.9.8-2.1 1.2-3.1 1.8-1.2.7-2.6.9-3.7 1.7-1.6 1.1-3.1 2.3-4.9 3.1-1.7.8-2.6 1.9-2.5 4 .2 4.3.1 8.6 0 12.9 0 1.6.5 2.5 1.9 3.3 3.8 2 7.5 4.1 11.2 6.2.8.4 1.3 1.4 2.3 1 1.2-.4 2.4-.8 3.4-1.5 3.1-2.2 6.5-4 9.8-5.9 1.2-.7 1.7-1.5 1.6-2.9.2-5.9.3-12.1.3-18.2M95 105.7v-7.4c0-1-.4-1.7-1.2-2.2-4.2-2.4-8.4-4.8-12.6-7.3-.9-.5-1.7-.6-2.7 0-4.1 2.4-8.3 4.8-12.4 7.2-.9.5-1.4 1.2-1.4 2.3v14.6c0 1.1.4 1.8 1.4 2.3 4.1 2.3 8.2 4.7 12.3 7.1q1.5.9 3 0c4.1-2.4 8.2-4.8 12.3-7.1 1-.6 1.4-1.3 1.4-2.5-.1-2.3-.1-4.6-.1-7M54.5 108c0-2.2-.2-4.5.1-6.6.4-3.4-.5-5.6-4-7-3.6-1.5-6.8-3.7-10.2-5.6-.8-.4-1.6-.8-2.5-.2-3.8 2.9-7.9 5-12.1 7.2-1.2.6-1.6 1.4-1.6 2.7.1 3.4 0 6.7 0 10.1v9.5c0 .5-.1 1 .4 1.3.6.3.8-.2 1.2-.4 1.6-.8 3.1-1.7 4.8-2.2 2.9-1 3.7-2 3.7-5.1v-5.2c0-4.3 0-4.3 3.9-5.7.1 0 .1-.1.2-.1 2.7-.9 6 1.4 6 4.2v8.1c0 1.2.5 2.1 1.5 2.6 2.3 1 4.4 2.3 6.6 3.6 1.5.8 1.9.6 1.9-1.1.1-3.5.1-6.8.1-10.1m91-2.2c0 2.3.1 4.6 0 6.8-.1 1.6.6 2.4 2 3 3.7 1.6 6.9 3.9 10.2 6.1 1 .7 2.2 1.3 3.4.9 3-.9 5.5-2.8 8-4.6.7-.5.7-.9-.1-1.5-1.6-1.3-3.3-2.5-5.1-3.4-2.3-1.1-4.5-2.5-6.7-3.8-.6-.4-1.6-.6-1.5-1.6.1-1.7-.7-3.7.4-5.1 1-1.3 2.8-2.2 4.4-2.6 1.3-.3 2.5.9 3.7 1.5s1.8 1.6 1.6 3.1c-.1.7-.1 1.4 0 2.2.1 1.2.8 1.7 1.8.9 2.2-1.8 5-2.6 7.1-4.4 1.2-1 1.8-5.4.8-6.6q-.3-.45-.9-.6c-4.2-1.7-7.8-4.5-11.6-6.9-1.3-.8-2.4-1.1-3.8-.2-4 2.5-8.3 4.6-12.2 7.3-.9.6-1.6 1.3-1.5 2.6.1 2.3 0 4.6 0 6.9m18-.1c0-1.7-1.3-3.3-2.8-3.3-1.3 0-3 1.6-3 2.9 0 2 1 3.4 2.6 3.4s3.2-1.5 3.2-3" class="st0"/><path d="M135.5 94.4v18.3c0 1.4-.5 2.2-1.6 2.9-3.3 1.9-6.7 3.7-9.8 5.9-1 .7-2.2 1.1-3.4 1.5-1 .3-1.6-.6-2.3-1-3.8-2-7.5-4.2-11.2-6.2-1.4-.7-1.9-1.7-1.9-3.3.1-4.3.2-8.6 0-12.9-.1-2.1.8-3.2 2.5-4 1.8-.8 3.3-2 4.9-3.1 1.1-.8 2.5-1 3.7-1.7 1-.6 2.1-1 3.1-1.8 1.3-1.1 2.3.1 3.4.6.8.3 1.3 1.6 2.3 1 .9-.5.3-1.7.4-2.5V70.7c0-.6-.3-1.4.5-1.8.7-.4 1.3.2 1.8.6 1.8 1.8 4.4 2.2 6.5 3.7 1.1.8 1.4 1.4 1.4 2.6-.3 6.2-.3 12.4-.3 18.6m-10.2 11.5c.4-2.3-.5-3.6-2.7-4.7-1.9-.9-2.9-.5-4.5.3-2.7 1.4-2.8 1.3-2.8 4.3v1.1c.1.8-.5 2 .5 2.5 1.5.8 3.1 2.1 4.6 2s3.1-1.4 4.5-2.5c1-.7.3-2 .4-3" class="st1"/><path d="M95 105.7v7c0 1.2-.4 1.9-1.4 2.5-4.1 2.3-8.2 4.7-12.3 7.1q-1.5.9-3 0c-4.1-2.4-8.2-4.8-12.3-7.1-1-.5-1.4-1.2-1.4-2.3V98.3c0-1.1.5-1.8 1.4-2.3 4.2-2.4 8.3-4.8 12.4-7.2 1-.6 1.8-.5 2.7 0 4.2 2.4 8.4 4.8 12.6 7.3.9.5 1.2 1.2 1.2 2.2.1 2.5.1 5 .1 7.4m-10.5-.5c-.2-1.2.5-2.8-1.1-3.6-1.3-.6-2.4-1.9-3.8-1.8-1.7.1-3.2 1.3-4.5 2.4-1.1.9-.4 2.6-.5 3.9-.1 1.6 3.3 4.7 5 4.4s3-1.4 4.4-2.4c.9-.7.3-1.9.5-2.9" style="fill:#fefefd"/><path d="M54.5 108v9.9c0 1.7-.5 1.9-1.9 1.1-2.2-1.3-4.3-2.5-6.6-3.6-1.1-.5-1.6-1.3-1.5-2.6v-8.1c0-2.8-3.3-5.1-6-4.2-.1 0-.1.1-.2.1-3.9 1.4-3.9 1.4-3.9 5.7v5.2c0 3.1-.8 4-3.7 5.1-1.6.6-3.2 1.4-4.8 2.2-.4.2-.6.8-1.2.4-.5-.3-.4-.8-.4-1.3V98.3c0-1.3.4-2.1 1.6-2.7 4.2-2.2 8.3-4.4 12.1-7.2.9-.7 1.7-.3 2.5.2 3.4 1.9 6.6 4.2 10.2 5.6 3.5 1.4 4.3 3.6 4 7-.4 2.4-.2 4.6-.2 6.8M145.5 105.8c0-2.3.1-4.6 0-6.8-.1-1.3.6-2 1.5-2.6 3.9-2.7 8.2-4.7 12.2-7.3 1.3-.9 2.5-.6 3.8.2 3.8 2.4 7.4 5.2 11.6 6.9.3.1.6.4.9.6 1 1.2.3 5.6-.8 6.6-2.2 1.8-5 2.6-7.1 4.4-1 .8-1.6.3-1.8-.9-.1-.7-.1-1.5 0-2.2.2-1.5-.4-2.5-1.6-3.1s-2.4-1.8-3.7-1.5c-1.6.4-3.4 1.3-4.4 2.6-1 1.4-.3 3.4-.4 5.1-.1 1 .9 1.2 1.5 1.6 2.2 1.3 4.4 2.6 6.7 3.8 1.8.9 3.5 2.1 5.1 3.4.7.6.8 1 .1 1.5-2.5 1.8-5 3.7-8 4.6-1.1.3-2.3-.2-3.4-.9-3.3-2.3-6.5-4.5-10.2-6.1-1.4-.6-2.1-1.5-2-3 .1-2.4 0-4.7 0-6.9" class="st1"/><path d="M163.5 105.7c0 1.5-1.6 3.1-3.2 3-1.6 0-2.6-1.4-2.6-3.4 0-1.3 1.7-2.9 3-2.9 1.5 0 2.8 1.6 2.8 3.3" class="st1"/><path d="M125.3 105.9c-.2 1 .5 2.3-.4 3-1.4 1-2.9 2.4-4.5 2.5-1.5.1-3.2-1.1-4.6-2-.9-.5-.4-1.6-.5-2.5-.1-.4 0-.7 0-1.1 0-3 .1-2.8 2.8-4.3 1.6-.9 2.6-1.2 4.5-.3 2.3 1.1 3.1 2.4 2.7 4.7M84.5 105.2c-.2 1 .5 2.2-.5 2.9-1.4 1-2.7 2.1-4.4 2.4s-5.1-2.8-5-4.4c.1-1.3-.7-3 .5-3.9 1.3-1.1 2.8-2.3 4.5-2.4 1.4-.1 2.5 1.2 3.8 1.8 1.6.8.9 2.4 1.1 3.6" class="st0"/></g></svg>